<svg width="146" height="91" viewBox="0 0 146 91" fill="none" xmlns="http://www.w3.org/2000/svg">
    <path d="M18.7644 55.3075L19.1822 55.1955L19.217 55.1862C20.5051 54.841 21.8736 55.6315 22.2189 56.92C22.5642 58.2086 21.7742 59.5774 20.4861 59.9225L19.0239 60.3143L16.5869 60.9673C15.2988 61.3125 14.5089 62.6813 14.8541 63.9698C15.1994 65.2584 16.5679 66.0488 17.856 65.7037L18.8657 65.4332L25.7936 63.5768C27.0818 63.2317 28.4503 64.0221 28.7955 65.3107C29.1408 66.5992 28.3509 67.968 27.0627 68.3132L18.7074 70.552L14.4949 71.6807C13.2068 72.0259 12.4168 73.3947 12.7621 74.6832C13.1074 75.9718 14.4759 76.7622 15.764 76.4171L18.5491 75.6708L28.3319 73.0495L53.7809 66.2305L55.2682 20.2562L32.6739 26.3103L29.1925 27.2432L21.986 29.1742C20.6978 29.5193 19.9079 30.8881 20.2532 32.1767C20.5984 33.4652 21.9669 34.2557 23.2551 33.9105L29.1734 32.3247C30.4616 31.9795 31.8301 32.77 32.1753 34.0585C32.5206 35.3471 31.7307 36.7159 30.4425 37.0611L28.8759 37.4808L13.4881 41.604C12.2 41.9491 11.41 43.3179 11.7553 44.6065C12.1006 45.8951 13.4691 46.6855 14.7572 46.3403L19.5267 45.0623L24.8533 43.6351C26.1414 43.29 27.5099 44.0804 27.8552 45.369C28.2005 46.6575 27.4105 48.0263 26.1224 48.3715L19.3685 50.1812L20.4825 49.8827L17.4885 50.6849C16.2004 51.0301 15.4104 52.3988 15.7557 53.6874C16.1171 54.897 17.4415 55.6619 18.7644 55.3075Z" fill="#3A34B8" />
    <path d="M98.9021 61.5307L98.6806 68.0849L138.145 28.209L100.656 8.05705L100.424 15.5472L38.664 32.0957L37.142 78.0793L98.9021 61.5307Z" fill="#6059E9" />
    <path d="M45.7443 45.4281C44.8043 45.68 43.8966 45.7739 42.9609 45.7633L42.4197 61.8468C46.5224 61.9792 50.2152 64.7597 51.3257 68.904L85.1649 59.8368C83.8025 54.7522 86.8001 49.5072 91.9177 48.1359C92.8229 47.8934 93.7306 47.7995 94.5966 47.8287L95.1378 31.7452C91.0955 31.5593 87.4468 28.8043 86.3363 24.66L52.4971 33.7272C53.8688 38.8466 50.8271 44.0662 45.7443 45.4281Z" fill="#DCDBED" />
    <path d="M54.9926 27.7208L55.2592 20.2213L38.6648 32.0958L54.9926 27.7208Z" fill="#3A34B8" />
    <path d="M66.811 39.522C62.7925 40.5987 60.4081 44.7304 61.4852 48.7503C62.5623 52.7702 66.6932 55.156 70.7117 54.0793C74.7302 53.0025 77.1146 48.8709 76.0375 44.851C74.9604 40.8311 70.8295 38.4452 66.811 39.522Z" fill="#6059E9" />
    <path d="M8.7028 58.0033L10.722 57.4623C12.0101 57.1171 12.8001 55.7483 12.4548 54.4597C12.1095 53.1712 10.741 52.3807 9.4529 52.7259L7.43369 53.2669C6.14557 53.6121 5.35561 54.9809 5.70088 56.2694C6.05549 57.5928 7.41468 58.3484 8.7028 58.0033Z" fill="#6059E9" />
    <path d="M8.82315 37.7029L15.0897 36.0237C16.3778 35.6786 17.1678 34.3098 16.8225 33.0212C16.4772 31.7327 15.1087 30.9422 13.8206 31.2874L7.55405 32.9665C6.26593 33.3117 5.47596 34.6804 5.82123 35.969C6.17584 37.2924 7.53503 38.048 8.82315 37.7029Z" fill="#6059E9" />
</svg>
