<svg width="210" height="180" viewBox="0 0 210 180" fill="none" xmlns="http://www.w3.org/2000/svg">
<g clip-path="url(#clip0)">
<path d="M59.0998 141.1C59.3998 141.3 59.3998 141.6 59.0998 141.8C58.7998 142 58.1998 142 57.8998 141.8C57.5998 141.6 57.5998 141.3 57.8998 141.1C58.1998 140.9 58.6998 140.9 59.0998 141.1Z" fill="#16110D"/>
<path d="M62.3 139.2C62.6 139.4 62.6 139.7 62.3 139.9C62 140.1 61.4 140.1 61.1 139.9C60.8 139.7 60.8 139.4 61.1 139.2C61.4 139.1 61.9 139.1 62.3 139.2Z" fill="#16110D"/>
<path d="M65.3999 137.4C65.6999 137.6 65.6999 137.9 65.3999 138.1C65.0999 138.3 64.4999 138.3 64.1999 138.1C63.8999 137.9 63.8999 137.6 64.1999 137.4C64.5999 137.2 65.0999 137.2 65.3999 137.4Z" fill="#16110D"/>
<path d="M68.5998 135.6C68.8998 135.8 68.8998 136.1 68.5998 136.3C68.2998 136.5 67.6998 136.5 67.3998 136.3C67.0998 136.1 67.0998 135.8 67.3998 135.6C67.6998 135.4 68.2998 135.4 68.5998 135.6Z" fill="#16110D"/>
<path d="M71.8 133.7C72.1 133.9 72.1 134.2 71.8 134.4C71.5 134.6 70.9 134.6 70.6 134.4C70.3 134.2 70.3 133.9 70.6 133.7C70.9 133.5 71.5 133.5 71.8 133.7Z" fill="#16110D"/>
<path d="M74.9999 131.9C75.2999 132.1 75.2999 132.4 74.9999 132.6C74.6999 132.8 74.1 132.8 73.8 132.6C73.5 132.4 73.5 132.1 73.8 131.9C74.1 131.7 74.6999 131.7 74.9999 131.9Z" fill="#16110D"/>
<path d="M78.1999 130C78.4999 130.2 78.4999 130.5 78.1999 130.7C77.8999 130.9 77.2999 130.9 76.9999 130.7C76.6999 130.5 76.6999 130.2 76.9999 130C77.2999 129.8 77.8999 129.8 78.1999 130Z" fill="#16110D"/>
<path d="M55.8999 139.2C56.1999 139.4 56.1999 139.7 55.8999 139.9C55.5999 140.1 54.9999 140.1 54.6999 139.9C54.3999 139.7 54.3999 139.4 54.6999 139.2C54.9999 139.1 55.4999 139.1 55.8999 139.2Z" fill="#16110D"/>
<path d="M59.0998 137.4C59.3998 137.6 59.3998 137.9 59.0998 138.1C58.7998 138.3 58.1998 138.3 57.8998 138.1C57.5998 137.9 57.5998 137.6 57.8998 137.4C58.1998 137.2 58.6998 137.2 59.0998 137.4Z" fill="#16110D"/>
<path d="M62.3 135.6C62.6 135.8 62.6 136.1 62.3 136.3C62 136.5 61.4 136.5 61.1 136.3C60.8 136.1 60.8 135.8 61.1 135.6C61.4 135.4 61.9 135.4 62.3 135.6Z" fill="#16110D"/>
<path d="M65.3999 133.7C65.6999 133.9 65.6999 134.2 65.3999 134.4C65.0999 134.6 64.4999 134.6 64.1999 134.4C63.8999 134.2 63.8999 133.9 64.1999 133.7C64.5999 133.5 65.0999 133.5 65.3999 133.7Z" fill="#16110D"/>
<path d="M68.5998 131.9C68.8998 132.1 68.8998 132.4 68.5998 132.6C68.2998 132.8 67.6998 132.8 67.3998 132.6C67.0998 132.4 67.0998 132.1 67.3998 131.9C67.6998 131.7 68.2998 131.7 68.5998 131.9Z" fill="#16110D"/>
<path d="M71.8 130C72.1 130.2 72.1 130.5 71.8 130.7C71.5 130.9 70.9 130.9 70.6 130.7C70.3 130.5 70.3 130.2 70.6 130C70.9 129.8 71.5 129.8 71.8 130Z" fill="#16110D"/>
<path d="M74.9999 128.2C75.2999 128.4 75.2999 128.7 74.9999 128.9C74.6999 129.1 74.1 129.1 73.8 128.9C73.5 128.7 73.5 128.4 73.8 128.2C74.1 128 74.6999 128 74.9999 128.2Z" fill="#16110D"/>
<path d="M52.6999 137.4C52.9999 137.6 52.9999 137.9 52.6999 138.1C52.3999 138.3 51.7999 138.3 51.4999 138.1C51.1999 137.9 51.1999 137.6 51.4999 137.4C51.7999 137.2 52.3999 137.2 52.6999 137.4Z" fill="#16110D"/>
<path d="M55.8999 135.6C56.1999 135.8 56.1999 136.1 55.8999 136.3C55.5999 136.5 54.9999 136.5 54.6999 136.3C54.3999 136.1 54.3999 135.8 54.6999 135.6C54.9999 135.4 55.4999 135.4 55.8999 135.6Z" fill="#16110D"/>
<path d="M59.0998 133.7C59.3998 133.9 59.3998 134.2 59.0998 134.4C58.7998 134.6 58.1998 134.6 57.8998 134.4C57.5998 134.2 57.5998 133.9 57.8998 133.7C58.1998 133.5 58.6998 133.5 59.0998 133.7Z" fill="#16110D"/>
<path d="M62.3 131.9C62.6 132.1 62.6 132.4 62.3 132.6C62 132.8 61.4 132.8 61.1 132.6C60.8 132.4 60.8 132.1 61.1 131.9C61.4 131.7 61.9 131.7 62.3 131.9Z" fill="#16110D"/>
<path d="M65.3999 130C65.6999 130.2 65.6999 130.5 65.3999 130.7C65.0999 130.9 64.4999 130.9 64.1999 130.7C63.8999 130.5 63.8999 130.2 64.1999 130C64.5999 129.8 65.0999 129.8 65.3999 130Z" fill="#16110D"/>
<path d="M68.5998 128.2C68.8998 128.4 68.8998 128.7 68.5998 128.9C68.2998 129.1 67.6998 129.1 67.3998 128.9C67.0998 128.7 67.0998 128.4 67.3998 128.2C67.6998 128 68.2998 128 68.5998 128.2Z" fill="#16110D"/>
<path d="M71.8 126.4C72.1 126.6 72.1 126.9 71.8 127.1C71.5 127.3 70.9 127.3 70.6 127.1C70.3 126.9 70.3 126.6 70.6 126.4C70.9 126.2 71.5 126.2 71.8 126.4C72.2 126.6 71.5 126.2 71.8 126.4Z" fill="#16110D"/>
<path d="M49.5 135.6C49.8 135.8 49.8 136.1 49.5 136.3C49.2 136.5 48.6 136.5 48.3 136.3C48 136.1 48 135.8 48.3 135.6C48.6 135.4 49.2 135.4 49.5 135.6Z" fill="#16110D"/>
<path d="M52.6999 133.7C52.9999 133.9 52.9999 134.2 52.6999 134.4C52.3999 134.6 51.7999 134.6 51.4999 134.4C51.1999 134.2 51.1999 133.9 51.4999 133.7C51.7999 133.5 52.3999 133.5 52.6999 133.7Z" fill="#16110D"/>
<path d="M55.8999 131.9C56.1999 132.1 56.1999 132.4 55.8999 132.6C55.5999 132.8 54.9999 132.8 54.6999 132.6C54.3999 132.4 54.3999 132.1 54.6999 131.9C54.9999 131.7 55.4999 131.7 55.8999 131.9Z" fill="#16110D"/>
<path d="M59.0998 130C59.3998 130.2 59.3998 130.5 59.0998 130.7C58.7998 130.9 58.1998 130.9 57.8998 130.7C57.5998 130.5 57.5998 130.2 57.8998 130C58.1998 129.8 58.6998 129.8 59.0998 130Z" fill="#16110D"/>
<path d="M62.3 128.2C62.6 128.4 62.6 128.7 62.3 128.9C62 129.1 61.4 129.1 61.1 128.9C60.8 128.7 60.8 128.4 61.1 128.2C61.4 128 61.9 128 62.3 128.2Z" fill="#16110D"/>
<path d="M65.3999 126.4C65.6999 126.6 65.6999 126.9 65.3999 127.1C65.0999 127.3 64.4999 127.3 64.1999 127.1C63.8999 126.9 63.8999 126.6 64.1999 126.4C64.5999 126.2 65.0999 126.2 65.3999 126.4Z" fill="#16110D"/>
<path d="M68.5998 125.2C68.2998 125.4 67.6998 125.4 67.3998 125.2C67.0998 125 67.0998 124.7 67.3998 124.5C67.6998 124.3 68.9998 125 68.5998 125.2Z" fill="#16110D"/>
<path d="M46.3 133.7C46.6 133.9 46.6 134.2 46.3 134.4C46 134.6 45.4 134.6 45.1 134.4C44.8 134.2 44.8 133.9 45.1 133.7C45.4 133.5 46 133.5 46.3 133.7Z" fill="#16110D"/>
<path d="M49.5 131.9C49.8 132.1 49.8 132.4 49.5 132.6C49.2 132.8 48.6 132.8 48.3 132.6C48 132.4 48 132.1 48.3 131.9C48.6 131.7 49.2 131.7 49.5 131.9Z" fill="#16110D"/>
<path d="M52.6999 130C52.9999 130.2 52.9999 130.5 52.6999 130.7C52.3999 130.9 51.7999 130.9 51.4999 130.7C51.1999 130.5 51.1999 130.2 51.4999 130C51.7999 129.8 52.3999 129.8 52.6999 130Z" fill="#16110D"/>
<path d="M55.8999 128.2C56.1999 128.4 56.1999 128.7 55.8999 128.9C55.5999 129.1 54.9999 129.1 54.6999 128.9C54.3999 128.7 54.3999 128.4 54.6999 128.2C54.9999 128 55.4999 128 55.8999 128.2Z" fill="#16110D"/>
<path d="M59.0998 126.4C59.3998 126.6 59.3998 126.9 59.0998 127.1C58.7998 127.3 58.1998 127.3 57.8998 127.1C57.5998 126.9 57.5998 126.6 57.8998 126.4C58.1998 126.2 58.6998 126.2 59.0998 126.4Z" fill="#16110D"/>
<path d="M62.3 124.5C62.6 124.7 62.6 125 62.3 125.2C62 125.4 61.4 125.4 61.1 125.2C60.8 125 60.8 124.7 61.1 124.5C61.4 124.3 61.9 124.3 62.3 124.5Z" fill="#16110D"/>
<path d="M43.0998 131.9C43.3998 132.1 43.3998 132.4 43.0998 132.6C42.7998 132.8 42.1998 132.8 41.8998 132.6C41.5998 132.4 41.5998 132.1 41.8998 131.9C42.1998 131.7 42.7998 131.7 43.0998 131.9Z" fill="#16110D"/>
<path d="M46.3 130C46.6 130.2 46.6 130.5 46.3 130.7C46 130.9 45.4 130.9 45.1 130.7C44.8 130.5 44.8 130.2 45.1 130C45.4 129.8 45.9 129.8 46.3 130Z" fill="#16110D"/>
<path d="M49.5 128.2C49.8 128.4 49.8 128.7 49.5 128.9C49.2 129.1 48.6 129.1 48.3 128.9C48 128.7 48 128.4 48.3 128.2C48.6 128 49.1 128 49.5 128.2Z" fill="#16110D"/>
<path d="M52.6999 126.3C52.9999 126.5 52.9999 126.8 52.6999 127C52.3999 127.2 51.7999 127.2 51.4999 127C51.1999 126.8 51.1999 126.5 51.4999 126.3C51.7999 126.1 52.2999 126.1 52.6999 126.3Z" fill="#16110D"/>
<path d="M55.8 124.5C56.1 124.7 56.1 125 55.8 125.2C55.5 125.4 54.9 125.4 54.6 125.2C54.3 125 54.3 124.7 54.6 124.5C55 124.3 55.5 124.3 55.8 124.5Z" fill="#16110D"/>
<path d="M59 122.7C59.3 122.9 59.3 123.2 59 123.4C58.7 123.6 58.1 123.6 57.8 123.4C57.5 123.2 57.5 122.9 57.8 122.7C58.2 122.5 58.7 122.5 59 122.7Z" fill="#16110D"/>
<path d="M39.8999 130C40.1999 130.2 40.1999 130.5 39.8999 130.7C39.5999 130.9 38.9999 130.9 38.6999 130.7C38.3999 130.5 38.3999 130.2 38.6999 130C38.9999 129.8 39.5999 129.8 39.8999 130Z" fill="#16110D"/>
<path d="M43.0998 128.2C43.3998 128.4 43.3998 128.7 43.0998 128.9C42.7998 129.1 42.1998 129.1 41.8998 128.9C41.5998 128.7 41.5998 128.4 41.8998 128.2C42.1998 128 42.7998 128 43.0998 128.2Z" fill="#16110D"/>
<path d="M46.3 126.3C46.6 126.5 46.6 126.8 46.3 127C46 127.2 45.4 127.2 45.1 127C44.8 126.8 44.8 126.5 45.1 126.3C45.4 126.1 45.9 126.1 46.3 126.3Z" fill="#16110D"/>
<path d="M49.5 124.5C49.8 124.7 49.8 125 49.5 125.2C49.2 125.4 48.6 125.4 48.3 125.2C48 125 48 124.7 48.3 124.5C48.6 124.3 49.1 124.3 49.5 124.5Z" fill="#16110D"/>
<path d="M52.6999 122.7C52.9999 122.9 52.9999 123.2 52.6999 123.4C52.3999 123.6 51.7999 123.6 51.4999 123.4C51.1999 123.2 51.1999 122.9 51.4999 122.7C51.7999 122.5 52.2999 122.5 52.6999 122.7Z" fill="#16110D"/>
<path d="M55.8 120.8C56.1 121 56.1 121.3 55.8 121.5C55.5 121.7 54.9 121.7 54.6 121.5C54.3 121.3 54.3 121 54.6 120.8C55 120.6 55.5 120.6 55.8 120.8Z" fill="#16110D"/>
<path d="M36.6999 128.2C36.9999 128.4 36.9999 128.7 36.6999 128.9C36.3999 129.1 35.7999 129.1 35.4999 128.9C35.1999 128.7 35.1999 128.4 35.4999 128.2C35.7999 128 36.3999 128 36.6999 128.2Z" fill="#16110D"/>
<path d="M39.8999 126.3C40.1999 126.5 40.1999 126.8 39.8999 127C39.5999 127.2 38.9999 127.2 38.6999 127C38.3999 126.8 38.3999 126.5 38.6999 126.3C38.9999 126.1 39.5999 126.1 39.8999 126.3Z" fill="#16110D"/>
<path d="M43.0998 124.5C43.3998 124.7 43.3998 125 43.0998 125.2C42.7998 125.4 42.1998 125.4 41.8998 125.2C41.5998 125 41.5998 124.7 41.8998 124.5C42.1998 124.3 42.7998 124.3 43.0998 124.5Z" fill="#16110D"/>
<path d="M46.3 122.7C46.6 122.9 46.6 123.2 46.3 123.4C46 123.6 45.4 123.6 45.1 123.4C44.8 123.2 44.8 122.9 45.1 122.7C45.4 122.5 45.9 122.5 46.3 122.7Z" fill="#16110D"/>
<path d="M49.5 120.8C49.8 121 49.8 121.3 49.5 121.5C49.2 121.7 48.6 121.7 48.3 121.5C48 121.3 48 121 48.3 120.8C48.6 120.6 49.1 120.6 49.5 120.8Z" fill="#16110D"/>
<path d="M52.6999 119C52.9999 119.2 52.9999 119.5 52.6999 119.7C52.3999 119.9 51.7999 119.9 51.4999 119.7C51.1999 119.5 51.1999 119.2 51.4999 119C51.7999 118.8 52.2999 118.8 52.6999 119C52.9999 119.2 52.2999 118.8 52.6999 119Z" fill="#16110D"/>
<path d="M33.5 126.3C33.8 126.5 33.8 126.8 33.5 127C33.2 127.2 32.6 127.2 32.3 127C32 126.8 32 126.5 32.3 126.3C32.6 126.1 33.2 126.1 33.5 126.3Z" fill="#16110D"/>
<path d="M36.6999 124.5C36.9999 124.7 36.9999 125 36.6999 125.2C36.3999 125.4 35.7999 125.4 35.4999 125.2C35.1999 125 35.1999 124.7 35.4999 124.5C35.7999 124.3 36.3999 124.3 36.6999 124.5Z" fill="#16110D"/>
<path d="M39.8999 122.7C40.1999 122.9 40.1999 123.2 39.8999 123.4C39.5999 123.6 38.9999 123.6 38.6999 123.4C38.3999 123.2 38.3999 122.9 38.6999 122.7C38.9999 122.5 39.5999 122.5 39.8999 122.7Z" fill="#16110D"/>
<path d="M43.0998 120.8C43.3998 121 43.3998 121.3 43.0998 121.5C42.7998 121.7 42.1998 121.7 41.8998 121.5C41.5998 121.3 41.5998 121 41.8998 120.8C42.1998 120.6 42.7998 120.6 43.0998 120.8Z" fill="#16110D"/>
<path d="M46.3 119C46.6 119.2 46.6 119.5 46.3 119.7C46 119.9 45.4 119.9 45.1 119.7C44.8 119.5 44.8 119.2 45.1 119C45.4 118.8 45.9 118.8 46.3 119Z" fill="#16110D"/>
<path d="M49.5 117.8C49.2 118 48.6 118 48.3 117.8C48 117.6 48 117.3 48.3 117.1C48.6 116.9 49.8 117.6 49.5 117.8Z" fill="#16110D"/>
<path d="M30.3 124.5C30.6 124.7 30.6 125 30.3 125.2C30 125.4 29.4 125.4 29.1 125.2C28.8 125 28.8 124.7 29.1 124.5C29.5 124.3 30 124.3 30.3 124.5Z" fill="#16110D"/>
<path d="M33.5 122.7C33.8 122.9 33.8 123.2 33.5 123.4C33.2 123.6 32.6 123.6 32.3 123.4C32 123.2 32 122.9 32.3 122.7C32.6 122.5 33.2 122.5 33.5 122.7Z" fill="#16110D"/>
<path d="M36.6999 120.8C36.9999 121 36.9999 121.3 36.6999 121.5C36.3999 121.7 35.7999 121.7 35.4999 121.5C35.1999 121.3 35.1999 121 35.4999 120.8C35.7999 120.6 36.3999 120.6 36.6999 120.8Z" fill="#16110D"/>
<path d="M39.8999 119C40.1999 119.2 40.1999 119.5 39.8999 119.7C39.5999 119.9 38.9999 119.9 38.6999 119.7C38.3999 119.5 38.3999 119.2 38.6999 119C38.9999 118.8 39.5999 118.8 39.8999 119Z" fill="#16110D"/>
<path d="M43.0998 117.1C43.3998 117.3 43.3998 117.6 43.0998 117.8C42.7998 118 42.1998 118 41.8998 117.8C41.5998 117.6 41.5998 117.3 41.8998 117.1C42.1998 116.9 42.7998 116.9 43.0998 117.1Z" fill="#16110D"/>
<path d="M46.3 116C46 116.2 45.4 116.2 45.1 116C44.8 115.8 44.8 115.5 45.1 115.3C45.4 115.1 46.6 115.8 46.3 116Z" fill="#16110D"/>
<path d="M27.1999 122.7C27.4999 122.9 27.4999 123.2 27.1999 123.4C26.8999 123.6 26.2999 123.6 25.9999 123.4C25.6999 123.2 25.6999 122.9 25.9999 122.7C26.2999 122.5 26.7999 122.5 27.1999 122.7Z" fill="#16110D"/>
<path d="M30.3 120.8C30.6 121 30.6 121.3 30.3 121.5C30 121.7 29.4 121.7 29.1 121.5C28.8 121.3 28.8 121 29.1 120.8C29.5 120.6 30 120.6 30.3 120.8Z" fill="#16110D"/>
<path d="M33.5 119C33.8 119.2 33.8 119.5 33.5 119.7C33.2 119.9 32.6 119.9 32.3 119.7C32 119.5 32 119.2 32.3 119C32.6 118.8 33.2 118.8 33.5 119Z" fill="#16110D"/>
<path d="M36.6999 117.1C36.9999 117.3 36.9999 117.6 36.6999 117.8C36.3999 118 35.7999 118 35.4999 117.8C35.1999 117.6 35.1999 117.3 35.4999 117.1C35.7999 116.9 36.3999 116.9 36.6999 117.1Z" fill="#16110D"/>
<path d="M39.8999 115.3C40.1999 115.5 40.1999 115.8 39.8999 116C39.5999 116.2 38.9999 116.2 38.6999 116C38.3999 115.8 38.3999 115.5 38.6999 115.3C38.9999 115.1 39.5999 115.1 39.8999 115.3Z" fill="#16110D"/>
<path d="M43.0998 114.2C42.7998 114.4 42.1998 114.4 41.8998 114.2C41.5998 114 41.5998 113.7 41.8998 113.5C42.1998 113.3 43.3998 114 43.0998 114.2Z" fill="#16110D"/>
<path d="M24 120.8C24.3 121 24.3 121.3 24 121.5C23.7 121.7 23.1 121.7 22.8 121.5C22.5 121.3 22.5 121 22.8 120.8C23.1 120.6 23.6 120.6 24 120.8Z" fill="#16110D"/>
<path d="M27.1999 119C27.4999 119.2 27.4999 119.5 27.1999 119.7C26.8999 119.9 26.2999 119.9 25.9999 119.7C25.6999 119.5 25.6999 119.2 25.9999 119C26.2999 118.8 26.7999 118.8 27.1999 119Z" fill="#16110D"/>
<path d="M30.3 117.1C30.6 117.3 30.6 117.6 30.3 117.8C30 118 29.4 118 29.1 117.8C28.8 117.6 28.8 117.3 29.1 117.1C29.5 116.9 30 116.9 30.3 117.1Z" fill="#16110D"/>
<path d="M33.5 115.3C33.8 115.5 33.8 115.8 33.5 116C33.2 116.2 32.6 116.2 32.3 116C32 115.8 32 115.5 32.3 115.3C32.6 115.1 33.2 115.1 33.5 115.3Z" fill="#16110D"/>
<path d="M36.6999 113.5C36.9999 113.7 36.9999 114 36.6999 114.2C36.3999 114.4 35.7999 114.4 35.4999 114.2C35.1999 114 35.1999 113.7 35.4999 113.5C35.7999 113.3 36.3999 113.3 36.6999 113.5Z" fill="#16110D"/>
<path d="M39.8999 112.3C39.5999 112.5 38.9999 112.5 38.6999 112.3C38.3999 112.1 38.3999 111.8 38.6999 111.6C38.9999 111.4 40.1999 112.1 39.8999 112.3Z" fill="#16110D"/>
<path d="M20.8 119C21.1 119.2 21.1 119.5 20.8 119.7C20.5 119.9 19.9 119.9 19.6 119.7C19.3 119.5 19.3 119.2 19.6 119C19.9 118.8 20.4 118.8 20.8 119Z" fill="#16110D"/>
<path d="M24 117.1C24.3 117.3 24.3 117.6 24 117.8C23.7 118 23.1 118 22.8 117.8C22.5 117.6 22.5 117.3 22.8 117.1C23.1 116.9 23.6 116.9 24 117.1Z" fill="#16110D"/>
<path d="M27.1999 115.3C27.4999 115.5 27.4999 115.8 27.1999 116C26.8999 116.2 26.2999 116.2 25.9999 116C25.6999 115.8 25.6999 115.5 25.9999 115.3C26.2999 115.1 26.7999 115.1 27.1999 115.3Z" fill="#16110D"/>
<path d="M30.3 113.5C30.6 113.7 30.6 114 30.3 114.2C30 114.4 29.4 114.4 29.1 114.2C28.8 114 28.8 113.7 29.1 113.5C29.5 113.3 30 113.3 30.3 113.5Z" fill="#16110D"/>
<path d="M33.5 111.6C33.8 111.8 33.8 112.1 33.5 112.3C33.2 112.5 32.6 112.5 32.3 112.3C32 112.1 32 111.8 32.3 111.6C32.6 111.4 33.2 111.4 33.5 111.6Z" fill="#16110D"/>
<path d="M17.5998 117.1C17.8998 117.3 17.8998 117.6 17.5998 117.8C17.2998 118 16.6998 118 16.3998 117.8C16.0998 117.6 16.0998 117.3 16.3998 117.1C16.6998 116.9 17.1998 116.9 17.5998 117.1Z" fill="#16110D"/>
<path d="M20.6999 115.3C20.9999 115.5 20.9999 115.8 20.6999 116C20.3999 116.2 19.7999 116.2 19.4999 116C19.1999 115.8 19.1999 115.5 19.4999 115.3C19.8999 115.1 20.3999 115.1 20.6999 115.3Z" fill="#16110D"/>
<path d="M23.8999 113.4C24.1999 113.6 24.1999 113.9 23.8999 114.1C23.5999 114.3 22.9999 114.3 22.6999 114.1C22.3999 113.9 22.3999 113.6 22.6999 113.4C23.0999 113.2 23.5999 113.2 23.8999 113.4Z" fill="#16110D"/>
<path d="M27.0998 111.6C27.3998 111.8 27.3998 112.1 27.0998 112.3C26.7998 112.5 26.1998 112.5 25.8998 112.3C25.5998 112.1 25.5998 111.8 25.8998 111.6C26.1998 111.4 26.7998 111.4 27.0998 111.6Z" fill="#16110D"/>
<path d="M30.3 109.8C30.6 110 30.6 110.3 30.3 110.5C30 110.7 29.4 110.7 29.1 110.5C28.8 110.3 28.8 110 29.1 109.8C29.4 109.6 30 109.6 30.3 109.8Z" fill="#16110D"/>
<path d="M14.3999 115.3C14.6999 115.5 14.6999 115.8 14.3999 116C14.0999 116.2 13.4999 116.2 13.1999 116C12.8999 115.8 12.8999 115.5 13.1999 115.3C13.4999 115.1 13.9999 115.1 14.3999 115.3Z" fill="#16110D"/>
<path d="M17.5998 113.4C17.8998 113.6 17.8998 113.9 17.5998 114.1C17.2998 114.3 16.6998 114.3 16.3998 114.1C16.0998 113.9 16.0998 113.6 16.3998 113.4C16.6998 113.2 17.1998 113.2 17.5998 113.4Z" fill="#16110D"/>
<path d="M20.6999 111.6C20.9999 111.8 20.9999 112.1 20.6999 112.3C20.3999 112.5 19.7999 112.5 19.4999 112.3C19.1999 112.1 19.1999 111.8 19.4999 111.6C19.8999 111.4 20.3999 111.4 20.6999 111.6Z" fill="#16110D"/>
<path d="M23.8999 109.8C24.1999 110 24.1999 110.3 23.8999 110.5C23.5999 110.7 22.9999 110.7 22.6999 110.5C22.3999 110.3 22.3999 110 22.6999 109.8C23.0999 109.6 23.5999 109.6 23.8999 109.8Z" fill="#16110D"/>
<path d="M27.0998 108.6C26.7998 108.8 26.1998 108.8 25.8998 108.6C25.5998 108.4 25.5998 108.1 25.8998 107.9C26.1998 107.7 27.4998 108.4 27.0998 108.6Z" fill="#16110D"/>
<path d="M11.1999 113.4C11.4999 113.6 11.4999 113.9 11.1999 114.1C10.8999 114.3 10.2999 114.3 9.9999 114.1C9.6999 113.9 9.6999 113.6 9.9999 113.4C10.2999 113.2 10.7999 113.2 11.1999 113.4Z" fill="#16110D"/>
<path d="M14.3999 111.6C14.6999 111.8 14.6999 112.1 14.3999 112.3C14.0999 112.5 13.4999 112.5 13.1999 112.3C12.8999 112.1 12.8999 111.8 13.1999 111.6C13.4999 111.4 13.9999 111.4 14.3999 111.6Z" fill="#16110D"/>
<path d="M17.5998 109.8C17.8998 110 17.8998 110.3 17.5998 110.5C17.2998 110.7 16.6998 110.7 16.3998 110.5C16.0998 110.3 16.0998 110 16.3998 109.8C16.6998 109.6 17.1998 109.6 17.5998 109.8Z" fill="#16110D"/>
<path d="M20.6999 107.9C20.9999 108.1 20.9999 108.4 20.6999 108.6C20.3999 108.8 19.7999 108.8 19.4999 108.6C19.1999 108.4 19.1999 108.1 19.4999 107.9C19.8999 107.7 20.3999 107.7 20.6999 107.9Z" fill="#16110D"/>
<path d="M11.1999 109.8C11.4999 110 11.4999 110.3 11.1999 110.5C10.8999 110.7 10.2999 110.7 9.9999 110.5C9.6999 110.3 9.6999 110 9.9999 109.8C10.2999 109.6 10.7999 109.6 11.1999 109.8Z" fill="#16110D"/>
<path d="M14.3999 107.9C14.6999 108.1 14.6999 108.4 14.3999 108.6C14.0999 108.8 13.4999 108.8 13.1999 108.6C12.8999 108.4 12.8999 108.1 13.1999 107.9C13.4999 107.7 13.9999 107.7 14.3999 107.9Z" fill="#16110D"/>
<path d="M113.5 168.4C113.8 168.6 113.8 168.9 113.5 169.1C113.2 169.3 112.6 169.3 112.3 169.1C112 168.9 112 168.6 112.3 168.4C112.6 168.3 113.1 168.3 113.5 168.4Z" fill="#16110D"/>
<path d="M116.6 166.6C116.9 166.8 116.9 167.1 116.6 167.3C116.3 167.5 115.7 167.5 115.4 167.3C115.1 167.1 115.1 166.8 115.4 166.6C115.7 166.4 116.3 166.4 116.6 166.6Z" fill="#16110D"/>
<path d="M119.8 164.8C120.1 165 120.1 165.3 119.8 165.5C119.5 165.7 118.9 165.7 118.6 165.5C118.3 165.3 118.3 165 118.6 164.8C118.9 164.6 119.5 164.6 119.8 164.8Z" fill="#16110D"/>
<path d="M123 162.9C123.3 163.1 123.3 163.4 123 163.6C122.7 163.8 122.1 163.8 121.8 163.6C121.5 163.4 121.5 163.1 121.8 162.9C122.1 162.7 122.7 162.7 123 162.9Z" fill="#16110D"/>
<path d="M126.2 161.1C126.5 161.3 126.5 161.6 126.2 161.8C125.9 162 125.3 162 125 161.8C124.7 161.6 124.7 161.3 125 161.1C125.3 160.9 125.9 160.9 126.2 161.1Z" fill="#16110D"/>
<path d="M129.4 159.2C129.7 159.4 129.7 159.7 129.4 159.9C129.1 160.1 128.5 160.1 128.2 159.9C127.9 159.7 127.9 159.4 128.2 159.2C128.5 159 129.1 159 129.4 159.2Z" fill="#16110D"/>
<path d="M132.6 157.4C132.9 157.6 132.9 157.9 132.6 158.1C132.3 158.3 131.7 158.3 131.4 158.1C131.1 157.9 131.1 157.6 131.4 157.4C131.7 157.2 132.2 157.2 132.6 157.4Z" fill="#16110D"/>
<path d="M135.8 155.6C136.1 155.8 136.1 156.1 135.8 156.3C135.5 156.5 134.9 156.5 134.6 156.3C134.3 156.1 134.3 155.8 134.6 155.6C134.9 155.4 135.4 155.4 135.8 155.6Z" fill="#16110D"/>
<path d="M139 153.7C139.3 153.9 139.3 154.2 139 154.4C138.7 154.6 138.1 154.6 137.8 154.4C137.5 154.2 137.5 153.9 137.8 153.7C138.1 153.5 138.6 153.5 139 153.7Z" fill="#16110D"/>
<path d="M142.2 151.9C142.5 152.1 142.5 152.4 142.2 152.6C141.9 152.8 141.3 152.8 141 152.6C140.7 152.4 140.7 152.1 141 151.9C141.3 151.7 141.8 151.7 142.2 151.9Z" fill="#16110D"/>
<path d="M145.3 150C145.6 150.2 145.6 150.5 145.3 150.7C145 150.9 144.4 150.9 144.1 150.7C143.8 150.5 143.8 150.2 144.1 150C144.5 149.8 145 149.8 145.3 150Z" fill="#16110D"/>
<path d="M148.5 148.2C148.8 148.4 148.8 148.7 148.5 148.9C148.2 149.1 147.6 149.1 147.3 148.9C147 148.7 147 148.4 147.3 148.2C147.6 148 148.2 148 148.5 148.2Z" fill="#16110D"/>
<path d="M151.7 146.4C152 146.6 152 146.9 151.7 147.1C151.4 147.3 150.8 147.3 150.5 147.1C150.2 146.9 150.2 146.6 150.5 146.4C150.8 146.2 151.4 146.2 151.7 146.4Z" fill="#16110D"/>
<path d="M154.9 144.5C155.2 144.7 155.2 145 154.9 145.2C154.6 145.4 154 145.4 153.7 145.2C153.4 145 153.4 144.7 153.7 144.5C154 144.3 154.6 144.3 154.9 144.5Z" fill="#16110D"/>
<path d="M158.1 142.7C158.4 142.9 158.4 143.2 158.1 143.4C157.8 143.6 157.2 143.6 156.9 143.4C156.6 143.2 156.6 142.9 156.9 142.7C157.2 142.5 157.8 142.5 158.1 142.7Z" fill="#16110D"/>
<path d="M107.1 168.4C107.4 168.6 107.4 168.9 107.1 169.1C106.8 169.3 106.2 169.3 105.9 169.1C105.6 168.9 105.6 168.6 105.9 168.4C106.2 168.3 106.7 168.3 107.1 168.4Z" fill="#16110D"/>
<path d="M110.3 166.6C110.6 166.8 110.6 167.1 110.3 167.3C110 167.5 109.4 167.5 109.1 167.3C108.8 167.1 108.8 166.8 109.1 166.6C109.4 166.4 109.9 166.4 110.3 166.6Z" fill="#16110D"/>
<path d="M113.5 164.8C113.8 165 113.8 165.3 113.5 165.5C113.2 165.7 112.6 165.7 112.3 165.5C112 165.3 112 165 112.3 164.8C112.6 164.6 113.1 164.6 113.5 164.8Z" fill="#16110D"/>
<path d="M116.6 162.9C116.9 163.1 116.9 163.4 116.6 163.6C116.3 163.8 115.7 163.8 115.4 163.6C115.1 163.4 115.1 163.1 115.4 162.9C115.8 162.7 116.3 162.7 116.6 162.9Z" fill="#16110D"/>
<path d="M119.8 161.1C120.1 161.3 120.1 161.6 119.8 161.8C119.5 162 118.9 162 118.6 161.8C118.3 161.6 118.3 161.3 118.6 161.1C118.9 160.9 119.5 160.9 119.8 161.1Z" fill="#16110D"/>
<path d="M123 159.2C123.3 159.4 123.3 159.7 123 159.9C122.7 160.1 122.1 160.1 121.8 159.9C121.5 159.7 121.5 159.4 121.8 159.2C122.1 159 122.7 159 123 159.2Z" fill="#16110D"/>
<path d="M126.2 157.4C126.5 157.6 126.5 157.9 126.2 158.1C125.9 158.3 125.3 158.3 125 158.1C124.7 157.9 124.7 157.6 125 157.4C125.3 157.2 125.9 157.2 126.2 157.4Z" fill="#16110D"/>
<path d="M129.4 155.6C129.7 155.8 129.7 156.1 129.4 156.3C129.1 156.5 128.5 156.5 128.2 156.3C127.9 156.1 127.9 155.8 128.2 155.6C128.5 155.4 129.1 155.4 129.4 155.6Z" fill="#16110D"/>
<path d="M132.6 153.7C132.9 153.9 132.9 154.2 132.6 154.4C132.3 154.6 131.7 154.6 131.4 154.4C131.1 154.2 131.1 153.9 131.4 153.7C131.7 153.5 132.2 153.5 132.6 153.7Z" fill="#16110D"/>
<path d="M135.8 151.9C136.1 152.1 136.1 152.4 135.8 152.6C135.5 152.8 134.9 152.8 134.6 152.6C134.3 152.4 134.3 152.1 134.6 151.9C134.9 151.7 135.4 151.7 135.8 151.9Z" fill="#16110D"/>
<path d="M139 150C139.3 150.2 139.3 150.5 139 150.7C138.7 150.9 138.1 150.9 137.8 150.7C137.5 150.5 137.5 150.2 137.8 150C138.1 149.8 138.6 149.8 139 150Z" fill="#16110D"/>
<path d="M142.2 148.2C142.5 148.4 142.5 148.7 142.2 148.9C141.9 149.1 141.3 149.1 141 148.9C140.7 148.7 140.7 148.4 141 148.2C141.3 148 141.8 148 142.2 148.2Z" fill="#16110D"/>
<path d="M145.3 146.4C145.6 146.6 145.6 146.9 145.3 147.1C145 147.3 144.4 147.3 144.1 147.1C143.8 146.9 143.8 146.6 144.1 146.4C144.5 146.2 145 146.2 145.3 146.4Z" fill="#16110D"/>
<path d="M148.5 144.5C148.8 144.7 148.8 145 148.5 145.2C148.2 145.4 147.6 145.4 147.3 145.2C147 145 147 144.7 147.3 144.5C147.6 144.3 148.2 144.3 148.5 144.5Z" fill="#16110D"/>
<path d="M151.7 142.7C152 142.9 152 143.2 151.7 143.4C151.4 143.6 150.8 143.6 150.5 143.4C150.2 143.2 150.2 142.9 150.5 142.7C150.8 142.5 151.4 142.5 151.7 142.7Z" fill="#16110D"/>
<path d="M154.9 140.8C155.2 141 155.2 141.3 154.9 141.5C154.6 141.7 154 141.7 153.7 141.5C153.4 141.3 153.4 141 153.7 140.8C154 140.6 154.6 140.6 154.9 140.8Z" fill="#16110D"/>
<path d="M103.9 166.6C104.2 166.8 104.2 167.1 103.9 167.3C103.6 167.5 103 167.5 102.7 167.3C102.4 167.1 102.4 166.8 102.7 166.6C103 166.4 103.6 166.4 103.9 166.6Z" fill="#16110D"/>
<path d="M107.1 164.8C107.4 165 107.4 165.3 107.1 165.5C106.8 165.7 106.2 165.7 105.9 165.5C105.6 165.3 105.6 165 105.9 164.8C106.2 164.6 106.7 164.6 107.1 164.8Z" fill="#16110D"/>
<path d="M110.3 162.9C110.6 163.1 110.6 163.4 110.3 163.6C110 163.8 109.4 163.8 109.1 163.6C108.8 163.4 108.8 163.1 109.1 162.9C109.4 162.7 109.9 162.7 110.3 162.9Z" fill="#16110D"/>
<path d="M113.5 161.1C113.8 161.3 113.8 161.6 113.5 161.8C113.2 162 112.6 162 112.3 161.8C112 161.6 112 161.3 112.3 161.1C112.6 160.9 113.1 160.9 113.5 161.1Z" fill="#16110D"/>
<path d="M116.6 159.2C116.9 159.4 116.9 159.7 116.6 159.9C116.3 160.1 115.7 160.1 115.4 159.9C115.1 159.7 115.1 159.4 115.4 159.2C115.8 159 116.3 159 116.6 159.2Z" fill="#16110D"/>
<path d="M119.8 157.4C120.1 157.6 120.1 157.9 119.8 158.1C119.5 158.3 118.9 158.3 118.6 158.1C118.3 157.9 118.3 157.6 118.6 157.4C118.9 157.2 119.5 157.2 119.8 157.4Z" fill="#16110D"/>
<path d="M123 155.6C123.3 155.8 123.3 156.1 123 156.3C122.7 156.5 122.1 156.5 121.8 156.3C121.5 156.1 121.5 155.8 121.8 155.6C122.1 155.4 122.7 155.4 123 155.6Z" fill="#16110D"/>
<path d="M126.2 153.7C126.5 153.9 126.5 154.2 126.2 154.4C125.9 154.6 125.3 154.6 125 154.4C124.7 154.2 124.7 153.9 125 153.7C125.3 153.5 125.9 153.5 126.2 153.7Z" fill="#16110D"/>
<path d="M129.4 151.9C129.7 152.1 129.7 152.4 129.4 152.6C129.1 152.8 128.5 152.8 128.2 152.6C127.9 152.4 127.9 152.1 128.2 151.9C128.5 151.7 129.1 151.7 129.4 151.9Z" fill="#16110D"/>
<path d="M132.6 150C132.9 150.2 132.9 150.5 132.6 150.7C132.3 150.9 131.7 150.9 131.4 150.7C131.1 150.5 131.1 150.2 131.4 150C131.7 149.8 132.2 149.8 132.6 150Z" fill="#16110D"/>
<path d="M135.8 148.2C136.1 148.4 136.1 148.7 135.8 148.9C135.5 149.1 134.9 149.1 134.6 148.9C134.3 148.7 134.3 148.4 134.6 148.2C134.9 148 135.4 148 135.8 148.2Z" fill="#16110D"/>
<path d="M139 146.4C139.3 146.6 139.3 146.9 139 147.1C138.7 147.3 138.1 147.3 137.8 147.1C137.5 146.9 137.5 146.6 137.8 146.4C138.1 146.2 138.6 146.2 139 146.4Z" fill="#16110D"/>
<path d="M142.2 144.5C142.5 144.7 142.5 145 142.2 145.2C141.9 145.4 141.3 145.4 141 145.2C140.7 145 140.7 144.7 141 144.5C141.3 144.3 141.8 144.3 142.2 144.5Z" fill="#16110D"/>
<path d="M145.3 142.7C145.6 142.9 145.6 143.2 145.3 143.4C145 143.6 144.4 143.6 144.1 143.4C143.8 143.2 143.8 142.9 144.1 142.7C144.5 142.5 145 142.5 145.3 142.7Z" fill="#16110D"/>
<path d="M148.5 140.8C148.8 141 148.8 141.3 148.5 141.5C148.2 141.7 147.6 141.7 147.3 141.5C147 141.3 147 141 147.3 140.8C147.6 140.6 148.2 140.6 148.5 140.8Z" fill="#16110D"/>
<path d="M151.7 139C152 139.2 152 139.5 151.7 139.7C151.4 139.9 150.8 139.9 150.5 139.7C150.2 139.5 150.2 139.2 150.5 139C150.8 138.8 151.4 138.8 151.7 139Z" fill="#16110D"/>
<path d="M100.7 164.8C101 165 101 165.3 100.7 165.5C100.4 165.7 99.7999 165.7 99.4999 165.5C99.1999 165.3 99.1999 165 99.4999 164.8C99.7999 164.6 100.4 164.6 100.7 164.8Z" fill="#16110D"/>
<path d="M103.9 162.9C104.2 163.1 104.2 163.4 103.9 163.6C103.6 163.8 103 163.8 102.7 163.6C102.4 163.4 102.4 163.1 102.7 162.9C103 162.7 103.6 162.7 103.9 162.9Z" fill="#16110D"/>
<path d="M107.1 161.1C107.4 161.3 107.4 161.6 107.1 161.8C106.8 162 106.2 162 105.9 161.8C105.6 161.6 105.6 161.3 105.9 161.1C106.2 160.9 106.7 160.9 107.1 161.1Z" fill="#16110D"/>
<path d="M110.3 159.2C110.6 159.4 110.6 159.7 110.3 159.9C110 160.1 109.4 160.1 109.1 159.9C108.8 159.7 108.8 159.4 109.1 159.2C109.4 159 109.9 159 110.3 159.2Z" fill="#16110D"/>
<path d="M113.5 157.4C113.8 157.6 113.8 157.9 113.5 158.1C113.2 158.3 112.6 158.3 112.3 158.1C112 157.9 112 157.6 112.3 157.4C112.6 157.2 113.1 157.2 113.5 157.4Z" fill="#16110D"/>
<path d="M116.6 155.6C116.9 155.8 116.9 156.1 116.6 156.3C116.3 156.5 115.7 156.5 115.4 156.3C115.1 156.1 115.1 155.8 115.4 155.6C115.8 155.4 116.3 155.4 116.6 155.6Z" fill="#16110D"/>
<path d="M119.8 153.7C120.1 153.9 120.1 154.2 119.8 154.4C119.5 154.6 118.9 154.6 118.6 154.4C118.3 154.2 118.3 153.9 118.6 153.7C118.9 153.5 119.5 153.5 119.8 153.7Z" fill="#16110D"/>
<path d="M123 151.9C123.3 152.1 123.3 152.4 123 152.6C122.7 152.8 122.1 152.8 121.8 152.6C121.5 152.4 121.5 152.1 121.8 151.9C122.1 151.7 122.7 151.7 123 151.9Z" fill="#16110D"/>
<path d="M126.2 150C126.5 150.2 126.5 150.5 126.2 150.7C125.9 150.9 125.3 150.9 125 150.7C124.7 150.5 124.7 150.2 125 150C125.3 149.8 125.9 149.8 126.2 150Z" fill="#16110D"/>
<path d="M129.4 148.2C129.7 148.4 129.7 148.7 129.4 148.9C129.1 149.1 128.5 149.1 128.2 148.9C127.9 148.7 127.9 148.4 128.2 148.2C128.5 148 129.1 148 129.4 148.2Z" fill="#16110D"/>
<path d="M132.6 146.4C132.9 146.6 132.9 146.9 132.6 147.1C132.3 147.3 131.7 147.3 131.4 147.1C131.1 146.9 131.1 146.6 131.4 146.4C131.7 146.2 132.2 146.2 132.6 146.4Z" fill="#16110D"/>
<path d="M135.8 144.5C136.1 144.7 136.1 145 135.8 145.2C135.5 145.4 134.9 145.4 134.6 145.2C134.3 145 134.3 144.7 134.6 144.5C134.9 144.3 135.4 144.3 135.8 144.5Z" fill="#16110D"/>
<path d="M139 142.7C139.3 142.9 139.3 143.2 139 143.4C138.7 143.6 138.1 143.6 137.8 143.4C137.5 143.2 137.5 142.9 137.8 142.7C138.1 142.5 138.6 142.5 139 142.7Z" fill="#16110D"/>
<path d="M142.2 140.8C142.5 141 142.5 141.3 142.2 141.5C141.9 141.7 141.3 141.7 141 141.5C140.7 141.3 140.7 141 141 140.8C141.3 140.6 141.8 140.6 142.2 140.8Z" fill="#16110D"/>
<path d="M145.3 139C145.6 139.2 145.6 139.5 145.3 139.7C145 139.9 144.4 139.9 144.1 139.7C143.8 139.5 143.8 139.2 144.1 139C144.5 138.8 145 138.8 145.3 139Z" fill="#16110D"/>
<path d="M148.5 137.2C148.8 137.4 148.8 137.7 148.5 137.9C148.2 138.1 147.6 138.1 147.3 137.9C147 137.7 147 137.4 147.3 137.2C147.6 137 148.2 137 148.5 137.2Z" fill="#16110D"/>
<path d="M97.4999 162.9C97.7999 163.1 97.7999 163.4 97.4999 163.6C97.1999 163.8 96.6 163.8 96.3 163.6C96 163.4 96 163.1 96.3 162.9C96.6 162.7 97.0999 162.7 97.4999 162.9Z" fill="#16110D"/>
<path d="M100.7 161.1C101 161.3 101 161.6 100.7 161.8C100.4 162 99.7999 162 99.4999 161.8C99.1999 161.6 99.1999 161.3 99.4999 161.1C99.7999 160.9 100.3 160.9 100.7 161.1Z" fill="#16110D"/>
<path d="M103.9 159.2C104.2 159.4 104.2 159.7 103.9 159.9C103.6 160.1 103 160.1 102.7 159.9C102.4 159.7 102.4 159.4 102.7 159.2C103 159 103.5 159 103.9 159.2Z" fill="#16110D"/>
<path d="M107 157.4C107.3 157.6 107.3 157.9 107 158.1C106.7 158.3 106.1 158.3 105.8 158.1C105.5 157.9 105.5 157.6 105.8 157.4C106.2 157.2 106.7 157.2 107 157.4Z" fill="#16110D"/>
<path d="M110.2 155.5C110.5 155.7 110.5 156 110.2 156.2C109.9 156.4 109.3 156.4 109 156.2C108.7 156 108.7 155.7 109 155.5C109.4 155.3 109.9 155.3 110.2 155.5Z" fill="#16110D"/>
<path d="M113.4 153.7C113.7 153.9 113.7 154.2 113.4 154.4C113.1 154.6 112.5 154.6 112.2 154.4C111.9 154.2 111.9 153.9 112.2 153.7C112.5 153.5 113.1 153.5 113.4 153.7Z" fill="#16110D"/>
<path d="M116.6 151.9C116.9 152.1 116.9 152.4 116.6 152.6C116.3 152.8 115.7 152.8 115.4 152.6C115.1 152.4 115.1 152.1 115.4 151.9C115.7 151.7 116.3 151.7 116.6 151.9Z" fill="#16110D"/>
<path d="M119.8 150C120.1 150.2 120.1 150.5 119.8 150.7C119.5 150.9 118.9 150.9 118.6 150.7C118.3 150.5 118.3 150.2 118.6 150C118.9 149.8 119.5 149.8 119.8 150Z" fill="#16110D"/>
<path d="M123 148.2C123.3 148.4 123.3 148.7 123 148.9C122.7 149.1 122.1 149.1 121.8 148.9C121.5 148.7 121.5 148.4 121.8 148.2C122.1 148 122.7 148 123 148.2Z" fill="#16110D"/>
<path d="M126.2 146.3C126.5 146.5 126.5 146.8 126.2 147C125.9 147.2 125.3 147.2 125 147C124.7 146.8 124.7 146.5 125 146.3C125.3 146.1 125.8 146.1 126.2 146.3Z" fill="#16110D"/>
<path d="M129.4 144.5C129.7 144.7 129.7 145 129.4 145.2C129.1 145.4 128.5 145.4 128.2 145.2C127.9 145 127.9 144.7 128.2 144.5C128.5 144.3 129 144.3 129.4 144.5Z" fill="#16110D"/>
<path d="M132.6 142.7C132.9 142.9 132.9 143.2 132.6 143.4C132.3 143.6 131.7 143.6 131.4 143.4C131.1 143.2 131.1 142.9 131.4 142.7C131.7 142.5 132.2 142.5 132.6 142.7Z" fill="#16110D"/>
<path d="M135.7 140.8C136 141 136 141.3 135.7 141.5C135.4 141.7 134.8 141.7 134.5 141.5C134.2 141.3 134.2 141 134.5 140.8C134.9 140.6 135.4 140.6 135.7 140.8Z" fill="#16110D"/>
<path d="M138.9 139C139.2 139.2 139.2 139.5 138.9 139.7C138.6 139.9 138 139.9 137.7 139.7C137.4 139.5 137.4 139.2 137.7 139C138.1 138.8 138.6 138.8 138.9 139Z" fill="#16110D"/>
<path d="M142.1 137.1C142.4 137.3 142.4 137.6 142.1 137.8C141.8 138 141.2 138 140.9 137.8C140.6 137.6 140.6 137.3 140.9 137.1C141.2 136.9 141.8 136.9 142.1 137.1Z" fill="#16110D"/>
<path d="M145.3 135.3C145.6 135.5 145.6 135.8 145.3 136C145 136.2 144.4 136.2 144.1 136C143.8 135.8 143.8 135.5 144.1 135.3C144.4 135.1 145 135.1 145.3 135.3Z" fill="#16110D"/>
<path d="M94.3 161.1C94.6 161.3 94.6 161.6 94.3 161.8C94 162 93.4 162 93.1 161.8C92.8 161.6 92.8 161.3 93.1 161.1C93.4 160.9 94 160.9 94.3 161.1Z" fill="#16110D"/>
<path d="M97.4999 159.2C97.7999 159.4 97.7999 159.7 97.4999 159.9C97.1999 160.1 96.6 160.1 96.3 159.9C96 159.7 96 159.4 96.3 159.2C96.6 159 97.0999 159 97.4999 159.2Z" fill="#16110D"/>
<path d="M100.7 157.4C101 157.6 101 157.9 100.7 158.1C100.4 158.3 99.7999 158.3 99.4999 158.1C99.1999 157.9 99.1999 157.6 99.4999 157.4C99.7999 157.2 100.3 157.2 100.7 157.4Z" fill="#16110D"/>
<path d="M103.9 155.5C104.2 155.7 104.2 156 103.9 156.2C103.6 156.4 103 156.4 102.7 156.2C102.4 156 102.4 155.7 102.7 155.5C103 155.3 103.5 155.3 103.9 155.5Z" fill="#16110D"/>
<path d="M107 153.7C107.3 153.9 107.3 154.2 107 154.4C106.7 154.6 106.1 154.6 105.8 154.4C105.5 154.2 105.5 153.9 105.8 153.7C106.2 153.5 106.7 153.5 107 153.7Z" fill="#16110D"/>
<path d="M110.2 151.9C110.5 152.1 110.5 152.4 110.2 152.6C109.9 152.8 109.3 152.8 109 152.6C108.7 152.4 108.7 152.1 109 151.9C109.4 151.7 109.9 151.7 110.2 151.9Z" fill="#16110D"/>
<path d="M113.4 150C113.7 150.2 113.7 150.5 113.4 150.7C113.1 150.9 112.5 150.9 112.2 150.7C111.9 150.5 111.9 150.2 112.2 150C112.5 149.8 113.1 149.8 113.4 150Z" fill="#16110D"/>
<path d="M116.6 148.2C116.9 148.4 116.9 148.7 116.6 148.9C116.3 149.1 115.7 149.1 115.4 148.9C115.1 148.7 115.1 148.4 115.4 148.2C115.7 148 116.3 148 116.6 148.2Z" fill="#16110D"/>
<path d="M119.8 146.3C120.1 146.5 120.1 146.8 119.8 147C119.5 147.2 118.9 147.2 118.6 147C118.3 146.8 118.3 146.5 118.6 146.3C118.9 146.1 119.5 146.1 119.8 146.3Z" fill="#16110D"/>
<path d="M123 144.5C123.3 144.7 123.3 145 123 145.2C122.7 145.4 122.1 145.4 121.8 145.2C121.5 145 121.5 144.7 121.8 144.5C122.1 144.3 122.7 144.3 123 144.5Z" fill="#16110D"/>
<path d="M126.2 142.7C126.5 142.9 126.5 143.2 126.2 143.4C125.9 143.6 125.3 143.6 125 143.4C124.7 143.2 124.7 142.9 125 142.7C125.3 142.5 125.8 142.5 126.2 142.7Z" fill="#16110D"/>
<path d="M129.4 140.8C129.7 141 129.7 141.3 129.4 141.5C129.1 141.7 128.5 141.7 128.2 141.5C127.9 141.3 127.9 141 128.2 140.8C128.5 140.6 129 140.6 129.4 140.8Z" fill="#16110D"/>
<path d="M132.6 139C132.9 139.2 132.9 139.5 132.6 139.7C132.3 139.9 131.7 139.9 131.4 139.7C131.1 139.5 131.1 139.2 131.4 139C131.7 138.8 132.2 138.8 132.6 139Z" fill="#16110D"/>
<path d="M135.7 137.1C136 137.3 136 137.6 135.7 137.8C135.4 138 134.8 138 134.5 137.8C134.2 137.6 134.2 137.3 134.5 137.1C134.9 136.9 135.4 136.9 135.7 137.1Z" fill="#16110D"/>
<path d="M138.9 135.3C139.2 135.5 139.2 135.8 138.9 136C138.6 136.2 138 136.2 137.7 136C137.4 135.8 137.4 135.5 137.7 135.3C138.1 135.1 138.6 135.1 138.9 135.3Z" fill="#16110D"/>
<path d="M142.1 133.5C142.4 133.7 142.4 134 142.1 134.2C141.8 134.4 141.2 134.4 140.9 134.2C140.6 134 140.6 133.7 140.9 133.5C141.2 133.3 141.8 133.3 142.1 133.5Z" fill="#16110D"/>
<path d="M91.0998 159.2C91.3998 159.4 91.3998 159.7 91.0998 159.9C90.7998 160.1 90.1998 160.1 89.8998 159.9C89.5998 159.7 89.5998 159.4 89.8998 159.2C90.1998 159 90.7998 159 91.0998 159.2Z" fill="#16110D"/>
<path d="M94.3 157.4C94.6 157.6 94.6 157.9 94.3 158.1C94 158.3 93.4 158.3 93.1 158.1C92.8 157.9 92.8 157.6 93.1 157.4C93.4 157.2 94 157.2 94.3 157.4Z" fill="#16110D"/>
<path d="M97.4999 155.5C97.7999 155.7 97.7999 156 97.4999 156.2C97.1999 156.4 96.6 156.4 96.3 156.2C96 156 96 155.7 96.3 155.5C96.6 155.3 97.0999 155.3 97.4999 155.5Z" fill="#16110D"/>
<path d="M100.7 153.7C101 153.9 101 154.2 100.7 154.4C100.4 154.6 99.7999 154.6 99.4999 154.4C99.1999 154.2 99.1999 153.9 99.4999 153.7C99.7999 153.5 100.3 153.5 100.7 153.7Z" fill="#16110D"/>
<path d="M103.9 151.9C104.2 152.1 104.2 152.4 103.9 152.6C103.6 152.8 103 152.8 102.7 152.6C102.4 152.4 102.4 152.1 102.7 151.9C103 151.7 103.5 151.7 103.9 151.9Z" fill="#16110D"/>
<path d="M107 150C107.3 150.2 107.3 150.5 107 150.7C106.7 150.9 106.1 150.9 105.8 150.7C105.5 150.5 105.5 150.2 105.8 150C106.2 149.8 106.7 149.8 107 150Z" fill="#16110D"/>
<path d="M110.2 148.2C110.5 148.4 110.5 148.7 110.2 148.9C109.9 149.1 109.3 149.1 109 148.9C108.7 148.7 108.7 148.4 109 148.2C109.4 148 109.9 148 110.2 148.2Z" fill="#16110D"/>
<path d="M113.4 146.3C113.7 146.5 113.7 146.8 113.4 147C113.1 147.2 112.5 147.2 112.2 147C111.9 146.8 111.9 146.5 112.2 146.3C112.5 146.1 113.1 146.1 113.4 146.3Z" fill="#16110D"/>
<path d="M116.6 144.5C116.9 144.7 116.9 145 116.6 145.2C116.3 145.4 115.7 145.4 115.4 145.2C115.1 145 115.1 144.7 115.4 144.5C115.7 144.3 116.3 144.3 116.6 144.5Z" fill="#16110D"/>
<path d="M119.8 142.7C120.1 142.9 120.1 143.2 119.8 143.4C119.5 143.6 118.9 143.6 118.6 143.4C118.3 143.2 118.3 142.9 118.6 142.7C118.9 142.5 119.5 142.5 119.8 142.7Z" fill="#16110D"/>
<path d="M123 140.8C123.3 141 123.3 141.3 123 141.5C122.7 141.7 122.1 141.7 121.8 141.5C121.5 141.3 121.5 141 121.8 140.8C122.1 140.6 122.7 140.6 123 140.8Z" fill="#16110D"/>
<path d="M126.2 139C126.5 139.2 126.5 139.5 126.2 139.7C125.9 139.9 125.3 139.9 125 139.7C124.7 139.5 124.7 139.2 125 139C125.3 138.8 125.8 138.8 126.2 139Z" fill="#16110D"/>
<path d="M129.4 137.1C129.7 137.3 129.7 137.6 129.4 137.8C129.1 138 128.5 138 128.2 137.8C127.9 137.6 127.9 137.3 128.2 137.1C128.5 136.9 129 136.9 129.4 137.1Z" fill="#16110D"/>
<path d="M132.6 135.3C132.9 135.5 132.9 135.8 132.6 136C132.3 136.2 131.7 136.2 131.4 136C131.1 135.8 131.1 135.5 131.4 135.3C131.7 135.1 132.2 135.1 132.6 135.3Z" fill="#16110D"/>
<path d="M135.7 133.5C136 133.7 136 134 135.7 134.2C135.4 134.4 134.8 134.4 134.5 134.2C134.2 134 134.2 133.7 134.5 133.5C134.9 133.3 135.4 133.3 135.7 133.5Z" fill="#16110D"/>
<path d="M138.9 131.6C139.2 131.8 139.2 132.1 138.9 132.3C138.6 132.5 138 132.5 137.7 132.3C137.4 132.1 137.4 131.8 137.7 131.6C138.1 131.4 138.6 131.4 138.9 131.6Z" fill="#16110D"/>
<path d="M87.8999 157.4C88.1999 157.6 88.1999 157.9 87.8999 158.1C87.5999 158.3 86.9999 158.3 86.6999 158.1C86.3999 157.9 86.3999 157.6 86.6999 157.4C86.9999 157.2 87.5999 157.2 87.8999 157.4Z" fill="#16110D"/>
<path d="M91.0998 155.5C91.3998 155.7 91.3998 156 91.0998 156.2C90.7998 156.4 90.1998 156.4 89.8998 156.2C89.5998 156 89.5998 155.7 89.8998 155.5C90.1998 155.3 90.7998 155.3 91.0998 155.5Z" fill="#16110D"/>
<path d="M94.3 153.7C94.6 153.9 94.6 154.2 94.3 154.4C94 154.6 93.4 154.6 93.1 154.4C92.8 154.2 92.8 153.9 93.1 153.7C93.4 153.5 94 153.5 94.3 153.7Z" fill="#16110D"/>
<path d="M97.4999 151.9C97.7999 152.1 97.7999 152.4 97.4999 152.6C97.1999 152.8 96.6 152.8 96.3 152.6C96 152.4 96 152.1 96.3 151.9C96.6 151.7 97.0999 151.7 97.4999 151.9Z" fill="#16110D"/>
<path d="M100.7 150C101 150.2 101 150.5 100.7 150.7C100.4 150.9 99.7999 150.9 99.4999 150.7C99.1999 150.5 99.1999 150.2 99.4999 150C99.7999 149.8 100.3 149.8 100.7 150Z" fill="#16110D"/>
<path d="M103.9 148.2C104.2 148.4 104.2 148.7 103.9 148.9C103.6 149.1 103 149.1 102.7 148.9C102.4 148.7 102.4 148.4 102.7 148.2C103 148 103.5 148 103.9 148.2Z" fill="#16110D"/>
<path d="M107 146.3C107.3 146.5 107.3 146.8 107 147C106.7 147.2 106.1 147.2 105.8 147C105.5 146.8 105.5 146.5 105.8 146.3C106.2 146.1 106.7 146.1 107 146.3Z" fill="#16110D"/>
<path d="M110.2 144.5C110.5 144.7 110.5 145 110.2 145.2C109.9 145.4 109.3 145.4 109 145.2C108.7 145 108.7 144.7 109 144.5C109.4 144.3 109.9 144.3 110.2 144.5C110.6 144.7 109.9 144.3 110.2 144.5Z" fill="#16110D"/>
<path d="M123 137.1C123.3 137.3 123.3 137.6 123 137.8C122.7 138 122.1 138 121.8 137.8C121.4 137.6 122.7 136.9 123 137.1Z" fill="#16110D"/>
<path d="M125 135.3C125.3 135.1 125.9 135.1 126.2 135.3C126.5 135.5 126.5 135.8 126.2 136C125.9 136.2 125.3 136.2 125 136C124.6 135.8 124.6 135.5 125 135.3Z" fill="#16110D"/>
<path d="M128.1 133.5C128.4 133.3 129 133.3 129.3 133.5C129.6 133.7 129.6 134 129.3 134.2C129 134.4 128.4 134.4 128.1 134.2C127.8 134 127.8 133.6 128.1 133.5C128.5 133.3 127.8 133.6 128.1 133.5Z" fill="#16110D"/>
<path d="M132.6 131.6C132.9 131.8 132.9 132.1 132.6 132.3C132.3 132.5 131.7 132.5 131.4 132.3C131.1 132.1 131.1 131.8 131.4 131.6C131.7 131.4 132.2 131.4 132.6 131.6Z" fill="#16110D"/>
<path d="M135.7 129.8C136 130 136 130.3 135.7 130.5C135.4 130.7 134.8 130.7 134.5 130.5C134.2 130.3 134.2 130 134.5 129.8C134.9 129.6 135.4 129.6 135.7 129.8Z" fill="#16110D"/>
<path d="M84.6999 155.5C84.9999 155.7 84.9999 156 84.6999 156.2C84.3999 156.4 83.7999 156.4 83.4999 156.2C83.1999 156 83.1999 155.7 83.4999 155.5C83.7999 155.3 84.3999 155.3 84.6999 155.5Z" fill="#16110D"/>
<path d="M87.8999 153.7C88.1999 153.9 88.1999 154.2 87.8999 154.4C87.5999 154.6 86.9999 154.6 86.6999 154.4C86.3999 154.2 86.3999 153.9 86.6999 153.7C86.9999 153.5 87.5999 153.5 87.8999 153.7Z" fill="#16110D"/>
<path d="M91.0998 151.9C91.3998 152.1 91.3998 152.4 91.0998 152.6C90.7998 152.8 90.1998 152.8 89.8998 152.6C89.5998 152.4 89.5998 152.1 89.8998 151.9C90.1998 151.7 90.7998 151.7 91.0998 151.9Z" fill="#16110D"/>
<path d="M94.3 150C94.6 150.2 94.6 150.5 94.3 150.7C94 150.9 93.4 150.9 93.1 150.7C92.8 150.5 92.8 150.2 93.1 150C93.4 149.8 94 149.8 94.3 150Z" fill="#16110D"/>
<path d="M97.4999 148.2C97.7999 148.4 97.7999 148.7 97.4999 148.9C97.1999 149.1 96.6 149.1 96.3 148.9C96 148.7 96 148.4 96.3 148.2C96.6 148 97.0999 148 97.4999 148.2Z" fill="#16110D"/>
<path d="M100.7 146.3C101 146.5 101 146.8 100.7 147C100.4 147.2 99.7999 147.2 99.4999 147C99.1999 146.8 99.1999 146.5 99.4999 146.3C99.7999 146.1 100.3 146.1 100.7 146.3Z" fill="#16110D"/>
<path d="M103.9 144.5C104.2 144.7 104.2 145 103.9 145.2C103.6 145.4 103 145.4 102.7 145.2C102.4 145 102.4 144.7 102.7 144.5C103 144.3 103.5 144.3 103.9 144.5Z" fill="#16110D"/>
<path d="M107 143.4C106.7 143.6 106.1 143.6 105.8 143.4C105.5 143.2 105.5 142.9 105.8 142.7C106.2 142.5 107.4 143.2 107 143.4Z" fill="#16110D"/>
<path d="M81.4999 153.7C81.7999 153.9 81.7999 154.2 81.4999 154.4C81.1999 154.6 80.6 154.6 80.3 154.4C80 154.2 80 153.9 80.3 153.7C80.7 153.5 81.1999 153.5 81.4999 153.7Z" fill="#16110D"/>
<path d="M84.6999 151.9C84.9999 152.1 84.9999 152.4 84.6999 152.6C84.3999 152.8 83.7999 152.8 83.4999 152.6C83.1999 152.4 83.1999 152.1 83.4999 151.9C83.7999 151.7 84.3999 151.7 84.6999 151.9Z" fill="#16110D"/>
<path d="M87.8999 150C88.1999 150.2 88.1999 150.5 87.8999 150.7C87.5999 150.9 86.9999 150.9 86.6999 150.7C86.3999 150.5 86.3999 150.2 86.6999 150C86.9999 149.8 87.5999 149.8 87.8999 150Z" fill="#16110D"/>
<path d="M91.0998 148.2C91.3998 148.4 91.3998 148.7 91.0998 148.9C90.7998 149.1 90.1998 149.1 89.8998 148.9C89.5998 148.7 89.5998 148.4 89.8998 148.2C90.1998 148 90.7998 148 91.0998 148.2Z" fill="#16110D"/>
<path d="M94.3 146.3C94.6 146.5 94.6 146.8 94.3 147C94 147.2 93.4 147.2 93.1 147C92.8 146.8 92.8 146.5 93.1 146.3C93.4 146.1 94 146.1 94.3 146.3Z" fill="#16110D"/>
<path d="M97.4999 144.5C97.7999 144.7 97.7999 145 97.4999 145.2C97.1999 145.4 96.6 145.4 96.3 145.2C96 145 96 144.7 96.3 144.5C96.6 144.3 97.0999 144.3 97.4999 144.5Z" fill="#16110D"/>
<path d="M100.7 142.7C101 142.9 101 143.2 100.7 143.4C100.4 143.6 99.7999 143.6 99.4999 143.4C99.1999 143.2 99.1999 142.9 99.4999 142.7C99.7999 142.5 100.3 142.5 100.7 142.7Z" fill="#16110D"/>
<path d="M103.9 140.8C104.2 141 104.2 141.3 103.9 141.5C103.6 141.7 103 141.7 102.7 141.5C102.4 141.3 102.4 141 102.7 140.8C103 140.6 103.5 140.6 103.9 140.8Z" fill="#16110D"/>
<path d="M78.3 151.9C78.6 152.1 78.6 152.4 78.3 152.6C78 152.8 77.4 152.8 77.1 152.6C76.8 152.4 76.8 152.1 77.1 151.9C77.5 151.7 78 151.7 78.3 151.9Z" fill="#16110D"/>
<path d="M81.4999 150C81.7999 150.2 81.7999 150.5 81.4999 150.7C81.1999 150.9 80.6 150.9 80.3 150.7C80 150.5 80 150.2 80.3 150C80.7 149.8 81.1999 149.8 81.4999 150Z" fill="#16110D"/>
<path d="M84.6999 148.2C84.9999 148.4 84.9999 148.7 84.6999 148.9C84.3999 149.1 83.7999 149.1 83.4999 148.9C83.1999 148.7 83.1999 148.4 83.4999 148.2C83.7999 148 84.3999 148 84.6999 148.2Z" fill="#16110D"/>
<path d="M87.8999 146.3C88.1999 146.5 88.1999 146.8 87.8999 147C87.5999 147.2 86.9999 147.2 86.6999 147C86.3999 146.8 86.3999 146.5 86.6999 146.3C86.9999 146.1 87.5999 146.1 87.8999 146.3Z" fill="#16110D"/>
<path d="M91.0998 144.5C91.3998 144.7 91.3998 145 91.0998 145.2C90.7998 145.4 90.1998 145.4 89.8998 145.2C89.5998 145 89.5998 144.7 89.8998 144.5C90.1998 144.3 90.7998 144.3 91.0998 144.5Z" fill="#16110D"/>
<path d="M94.3 142.7C94.6 142.9 94.6 143.2 94.3 143.4C94 143.6 93.4 143.6 93.1 143.4C92.8 143.2 92.8 142.9 93.1 142.7C93.4 142.5 94 142.5 94.3 142.7Z" fill="#16110D"/>
<path d="M97.4999 140.8C97.7999 141 97.7999 141.3 97.4999 141.5C97.1999 141.7 96.6 141.7 96.3 141.5C96 141.3 96 141 96.3 140.8C96.6 140.6 97.0999 140.6 97.4999 140.8Z" fill="#16110D"/>
<path d="M100.7 139C101 139.2 101 139.5 100.7 139.7C100.4 139.9 99.7999 139.9 99.4999 139.7C99.1999 139.5 99.1999 139.2 99.4999 139C99.7999 138.8 100.3 138.8 100.7 139Z" fill="#16110D"/>
<path d="M103.9 137.8C103.6 138 103 138 102.7 137.8C102.4 137.6 102.4 137.3 102.7 137.1C103 136.9 104.2 137.6 103.9 137.8Z" fill="#16110D"/>
<path d="M75.1999 150C75.4999 150.2 75.4999 150.5 75.1999 150.7C74.8999 150.9 74.2999 150.9 73.9999 150.7C73.6999 150.5 73.6999 150.2 73.9999 150C74.2999 149.8 74.7999 149.8 75.1999 150Z" fill="#16110D"/>
<path d="M78.3 148.2C78.6 148.4 78.6 148.7 78.3 148.9C78 149.1 77.4 149.1 77.1 148.9C76.8 148.7 76.8 148.4 77.1 148.2C77.5 148 78 148 78.3 148.2Z" fill="#16110D"/>
<path d="M81.4999 146.3C81.7999 146.5 81.7999 146.8 81.4999 147C81.1999 147.2 80.6 147.2 80.3 147C80 146.8 80 146.5 80.3 146.3C80.7 146.1 81.1999 146.1 81.4999 146.3Z" fill="#16110D"/>
<path d="M84.6999 144.5C84.9999 144.7 84.9999 145 84.6999 145.2C84.3999 145.4 83.7999 145.4 83.4999 145.2C83.1999 145 83.1999 144.7 83.4999 144.5C83.7999 144.3 84.3999 144.3 84.6999 144.5Z" fill="#16110D"/>
<path d="M87.8999 142.7C88.1999 142.9 88.1999 143.2 87.8999 143.4C87.5999 143.6 86.9999 143.6 86.6999 143.4C86.3999 143.2 86.3999 142.9 86.6999 142.7C86.9999 142.5 87.5999 142.5 87.8999 142.7Z" fill="#16110D"/>
<path d="M91.0998 140.8C91.3998 141 91.3998 141.3 91.0998 141.5C90.7998 141.7 90.1998 141.7 89.8998 141.5C89.5998 141.3 89.5998 141 89.8998 140.8C90.1998 140.6 90.7998 140.6 91.0998 140.8Z" fill="#16110D"/>
<path d="M94.3 139C94.6 139.2 94.6 139.5 94.3 139.7C94 139.9 93.4 139.9 93.1 139.7C92.8 139.5 92.8 139.2 93.1 139C93.4 138.8 94 138.8 94.3 139Z" fill="#16110D"/>
<path d="M97.4999 137.1C97.7999 137.3 97.7999 137.6 97.4999 137.8C97.1999 138 96.6 138 96.3 137.8C96 137.6 96 137.3 96.3 137.1C96.6 136.9 97.0999 136.9 97.4999 137.1Z" fill="#16110D"/>
<path d="M100.7 135.3C101 135.5 101 135.8 100.7 136C100.4 136.2 99.7999 136.2 99.4999 136C99.1999 135.8 99.1999 135.5 99.4999 135.3C99.7999 135.1 100.3 135.1 100.7 135.3Z" fill="#16110D"/>
<path d="M71.8999 148.2C72.1999 148.4 72.1999 148.7 71.8999 148.9C71.5999 149.1 70.9999 149.1 70.6999 148.9C70.3999 148.7 70.3999 148.4 70.6999 148.2C71.0999 148 71.5999 148 71.8999 148.2Z" fill="#16110D"/>
<path d="M75.0998 146.3C75.3998 146.5 75.3998 146.8 75.0998 147C74.7998 147.2 74.1998 147.2 73.8998 147C73.5998 146.8 73.5998 146.5 73.8998 146.3C74.2998 146.1 74.7998 146.1 75.0998 146.3Z" fill="#16110D"/>
<path d="M78.3 144.5C78.6 144.7 78.6 145 78.3 145.2C78 145.4 77.4 145.4 77.1 145.2C76.8 145 76.8 144.7 77.1 144.5C77.4 144.3 78 144.3 78.3 144.5Z" fill="#16110D"/>
<path d="M81.4999 142.6C81.7999 142.8 81.7999 143.1 81.4999 143.3C81.1999 143.5 80.6 143.5 80.3 143.3C80 143.1 80 142.8 80.3 142.6C80.6 142.4 81.1999 142.4 81.4999 142.6Z" fill="#16110D"/>
<path d="M84.6999 140.8C84.9999 141 84.9999 141.3 84.6999 141.5C84.3999 141.7 83.7999 141.7 83.4999 141.5C83.1999 141.3 83.1999 141 83.4999 140.8C83.7999 140.6 84.3999 140.6 84.6999 140.8Z" fill="#16110D"/>
<path d="M87.8999 139C88.1999 139.2 88.1999 139.5 87.8999 139.7C87.5999 139.9 86.9999 139.9 86.6999 139.7C86.3999 139.5 86.3999 139.2 86.6999 139C86.9999 138.8 87.5999 138.8 87.8999 139Z" fill="#16110D"/>
<path d="M91.0998 137.1C91.3998 137.3 91.3998 137.6 91.0998 137.8C90.7998 138 90.1998 138 89.8998 137.8C89.5998 137.6 89.5998 137.3 89.8998 137.1C90.1998 136.9 90.6998 136.9 91.0998 137.1Z" fill="#16110D"/>
<path d="M94.3 135.3C94.6 135.5 94.6 135.8 94.3 136C94 136.2 93.4 136.2 93.1 136C92.8 135.8 92.8 135.5 93.1 135.3C93.4 135.1 93.9 135.1 94.3 135.3Z" fill="#16110D"/>
<path d="M97.4999 133.4C97.7999 133.6 97.7999 133.9 97.4999 134.1C97.1999 134.3 96.6 134.3 96.3 134.1C96 133.9 96 133.6 96.3 133.4C96.6 133.2 97.0999 133.2 97.4999 133.4Z" fill="#16110D"/>
<path d="M68.8 146.3C69.1 146.5 69.1 146.8 68.8 147C68.5 147.2 67.9 147.2 67.6 147C67.3 146.8 67.3 146.5 67.6 146.3C67.9 146.1 68.4 146.1 68.8 146.3Z" fill="#16110D"/>
<path d="M71.8999 144.5C72.1999 144.7 72.1999 145 71.8999 145.2C71.5999 145.4 70.9999 145.4 70.6999 145.2C70.3999 145 70.3999 144.7 70.6999 144.5C71.0999 144.3 71.5999 144.3 71.8999 144.5Z" fill="#16110D"/>
<path d="M75.0998 142.6C75.3998 142.8 75.3998 143.1 75.0998 143.3C74.7998 143.5 74.1998 143.5 73.8998 143.3C73.5998 143.1 73.5998 142.8 73.8998 142.6C74.2998 142.4 74.7998 142.4 75.0998 142.6Z" fill="#16110D"/>
<path d="M78.3 140.8C78.6 141 78.6 141.3 78.3 141.5C78 141.7 77.4 141.7 77.1 141.5C76.8 141.3 76.8 141 77.1 140.8C77.4 140.6 78 140.6 78.3 140.8Z" fill="#16110D"/>
<path d="M81.4999 139C81.7999 139.2 81.7999 139.5 81.4999 139.7C81.1999 139.9 80.6 139.9 80.3 139.7C80 139.5 80 139.2 80.3 139C80.6 138.8 81.1999 138.8 81.4999 139Z" fill="#16110D"/>
<path d="M84.6999 137.1C84.9999 137.3 84.9999 137.6 84.6999 137.8C84.3999 138 83.7999 138 83.4999 137.8C83.1999 137.6 83.1999 137.3 83.4999 137.1C83.7999 136.9 84.3999 136.9 84.6999 137.1Z" fill="#16110D"/>
<path d="M87.8999 135.3C88.1999 135.5 88.1999 135.8 87.8999 136C87.5999 136.2 86.9999 136.2 86.6999 136C86.3999 135.8 86.3999 135.5 86.6999 135.3C86.9999 135.1 87.5999 135.1 87.8999 135.3Z" fill="#16110D"/>
<path d="M91.0998 133.4C91.3998 133.6 91.3998 133.9 91.0998 134.1C90.7998 134.3 90.1998 134.3 89.8998 134.1C89.5998 133.9 89.5998 133.6 89.8998 133.4C90.1998 133.2 90.6998 133.2 91.0998 133.4Z" fill="#16110D"/>
<path d="M94.3 131.6C94.6 131.8 94.6 132.1 94.3 132.3C94 132.5 93.4 132.5 93.1 132.3C92.8 132.1 92.8 131.8 93.1 131.6C93.4 131.4 93.9 131.4 94.3 131.6Z" fill="#16110D"/>
<path d="M65.5998 144.5C65.8998 144.7 65.8998 145 65.5998 145.2C65.2998 145.4 64.6998 145.4 64.3998 145.2C64.0998 145 64.0998 144.7 64.3998 144.5C64.6998 144.3 65.1998 144.3 65.5998 144.5Z" fill="#16110D"/>
<path d="M68.8 142.6C69.1 142.8 69.1 143.1 68.8 143.3C68.5 143.5 67.9 143.5 67.6 143.3C67.3 143.1 67.3 142.8 67.6 142.6C67.9 142.4 68.4 142.4 68.8 142.6Z" fill="#16110D"/>
<path d="M71.8999 140.8C72.1999 141 72.1999 141.3 71.8999 141.5C71.5999 141.7 70.9999 141.7 70.6999 141.5C70.3999 141.3 70.3999 141 70.6999 140.8C71.0999 140.6 71.5999 140.6 71.8999 140.8Z" fill="#16110D"/>
<path d="M75.0998 139C75.3998 139.2 75.3998 139.5 75.0998 139.7C74.7998 139.9 74.1998 139.9 73.8998 139.7C73.5998 139.5 73.5998 139.2 73.8998 139C74.2998 138.8 74.7998 138.8 75.0998 139Z" fill="#16110D"/>
<path d="M78.3 137.1C78.6 137.3 78.6 137.6 78.3 137.8C78 138 77.4 138 77.1 137.8C76.8 137.6 76.8 137.3 77.1 137.1C77.4 136.9 78 136.9 78.3 137.1Z" fill="#16110D"/>
<path d="M81.4999 135.3C81.7999 135.5 81.7999 135.8 81.4999 136C81.1999 136.2 80.6 136.2 80.3 136C80 135.8 80 135.5 80.3 135.3C80.6 135.1 81.1999 135.1 81.4999 135.3Z" fill="#16110D"/>
<path d="M84.6999 133.4C84.9999 133.6 84.9999 133.9 84.6999 134.1C84.3999 134.3 83.7999 134.3 83.4999 134.1C83.1999 133.9 83.1999 133.6 83.4999 133.4C83.7999 133.2 84.3999 133.2 84.6999 133.4Z" fill="#16110D"/>
<path d="M87.8999 131.6C88.1999 131.8 88.1999 132.1 87.8999 132.3C87.5999 132.5 86.9999 132.5 86.6999 132.3C86.3999 132.1 86.3999 131.8 86.6999 131.6C86.9999 131.4 87.5999 131.4 87.8999 131.6C88.1999 131.8 87.5999 131.4 87.8999 131.6Z" fill="#16110D"/>
<path d="M62.3999 142.6C62.6999 142.8 62.6999 143.1 62.3999 143.3C62.0999 143.5 61.4999 143.5 61.1999 143.3C60.8999 143.1 60.8999 142.8 61.1999 142.6C61.4999 142.4 61.9999 142.4 62.3999 142.6Z" fill="#16110D"/>
<path d="M65.5998 140.8C65.8998 141 65.8998 141.3 65.5998 141.5C65.2998 141.7 64.6998 141.7 64.3998 141.5C64.0998 141.3 64.0998 141 64.3998 140.8C64.6998 140.6 65.1998 140.6 65.5998 140.8Z" fill="#16110D"/>
<path d="M68.8 139C69.1 139.2 69.1 139.5 68.8 139.7C68.5 139.9 67.9 139.9 67.6 139.7C67.3 139.5 67.3 139.2 67.6 139C67.9 138.8 68.4 138.8 68.8 139Z" fill="#16110D"/>
<path d="M71.8999 137.1C72.1999 137.3 72.1999 137.6 71.8999 137.8C71.5999 138 70.9999 138 70.6999 137.8C70.3999 137.6 70.3999 137.3 70.6999 137.1C71.0999 136.9 71.5999 136.9 71.8999 137.1Z" fill="#16110D"/>
<path d="M75.0998 135.3C75.3998 135.5 75.3998 135.8 75.0998 136C74.7998 136.2 74.1998 136.2 73.8998 136C73.5998 135.8 73.5998 135.5 73.8998 135.3C74.2998 135.1 74.7998 135.1 75.0998 135.3Z" fill="#16110D"/>
<path d="M78.3 133.4C78.6 133.6 78.6 133.9 78.3 134.1C78 134.3 77.4 134.3 77.1 134.1C76.8 133.9 76.8 133.6 77.1 133.4C77.4 133.2 78 133.2 78.3 133.4Z" fill="#16110D"/>
<path d="M81.4999 131.6C81.7999 131.8 81.7999 132.1 81.4999 132.3C81.1999 132.5 80.6 132.5 80.3 132.3C80 132.1 80 131.8 80.3 131.6C80.6 131.4 81.1999 131.4 81.4999 131.6Z" fill="#16110D"/>
<path d="M160.1 140.9C160.4 140.7 161 140.7 161.3 140.9C161.6 141.1 161.6 141.4 161.3 141.6C161 141.8 160.4 141.8 160.1 141.6C159.8 141.4 159.7 141 160.1 140.9Z" fill="#16110D"/>
<path d="M164.5 139C164.8 139.2 164.8 139.5 164.5 139.7C164.2 139.9 163.6 139.9 163.3 139.7C163 139.5 163 139.2 163.3 139C163.6 138.8 164.2 138.8 164.5 139Z" fill="#16110D"/>
<path d="M167.7 137.2C168 137.4 168 137.7 167.7 137.9C167.4 138.1 166.8 138.1 166.5 137.9C166.2 137.7 166.2 137.4 166.5 137.2C166.8 137 167.4 137 167.7 137.2Z" fill="#16110D"/>
<path d="M170.9 135.3C171.2 135.5 171.2 135.8 170.9 136C170.6 136.2 170 136.2 169.7 136C169.4 135.8 169.4 135.5 169.7 135.3C170 135.1 170.5 135.1 170.9 135.3Z" fill="#16110D"/>
<path d="M174.1 133.5C174.4 133.7 174.4 134 174.1 134.2C173.8 134.4 173.2 134.4 172.9 134.2C172.6 134 172.6 133.7 172.9 133.5C173.2 133.3 173.7 133.3 174.1 133.5Z" fill="#16110D"/>
<path d="M177.3 131.6C177.6 131.8 177.6 132.1 177.3 132.3C177 132.5 176.4 132.5 176.1 132.3C175.8 132.1 175.8 131.8 176.1 131.6C176.4 131.5 176.9 131.5 177.3 131.6Z" fill="#16110D"/>
<path d="M180.4 129.8C180.7 130 180.7 130.3 180.4 130.5C180.1 130.7 179.5 130.7 179.2 130.5C178.9 130.3 178.9 130 179.2 129.8C179.6 129.6 180.1 129.6 180.4 129.8Z" fill="#16110D"/>
<path d="M183.6 128C183.9 128.2 183.9 128.5 183.6 128.7C183.3 128.9 182.7 128.9 182.4 128.7C182.1 128.5 182.1 128.2 182.4 128C182.7 127.8 183.3 127.8 183.6 128Z" fill="#16110D"/>
<path d="M186.8 126.1C187.1 126.3 187.1 126.6 186.8 126.8C186.5 127 185.9 127 185.6 126.8C185.3 126.6 185.3 126.3 185.6 126.1C185.9 125.9 186.5 125.9 186.8 126.1Z" fill="#16110D"/>
<path d="M156.9 139C157.2 138.8 157.8 138.8 158.1 139C158.4 139.2 158.4 139.5 158.1 139.7C157.8 139.9 157.2 139.9 156.9 139.7C156.6 139.5 156.6 139.2 156.9 139Z" fill="#16110D"/>
<path d="M161.3 137.2C161.6 137.4 161.6 137.7 161.3 137.9C161 138.1 160.4 138.1 160.1 137.9C159.8 137.7 159.8 137.4 160.1 137.2C160.4 137 161 137 161.3 137.2Z" fill="#16110D"/>
<path d="M164.5 135.3C164.8 135.5 164.8 135.8 164.5 136C164.2 136.2 163.6 136.2 163.3 136C163 135.8 163 135.5 163.3 135.3C163.6 135.1 164.2 135.1 164.5 135.3Z" fill="#16110D"/>
<path d="M167.7 133.5C168 133.7 168 134 167.7 134.2C167.4 134.4 166.8 134.4 166.5 134.2C166.2 134 166.2 133.7 166.5 133.5C166.8 133.3 167.4 133.3 167.7 133.5Z" fill="#16110D"/>
<path d="M170.9 131.6C171.2 131.8 171.2 132.1 170.9 132.3C170.6 132.5 170 132.5 169.7 132.3C169.4 132.1 169.4 131.8 169.7 131.6C170 131.5 170.5 131.5 170.9 131.6Z" fill="#16110D"/>
<path d="M174.1 129.8C174.4 130 174.4 130.3 174.1 130.5C173.8 130.7 173.2 130.7 172.9 130.5C172.6 130.3 172.6 130 172.9 129.8C173.2 129.6 173.7 129.6 174.1 129.8Z" fill="#16110D"/>
<path d="M177.3 128C177.6 128.2 177.6 128.5 177.3 128.7C177 128.9 176.4 128.9 176.1 128.7C175.8 128.5 175.8 128.2 176.1 128C176.4 127.8 176.9 127.8 177.3 128Z" fill="#16110D"/>
<path d="M180.4 126.1C180.7 126.3 180.7 126.6 180.4 126.8C180.1 127 179.5 127 179.2 126.8C178.9 126.6 178.9 126.3 179.2 126.1C179.6 125.9 180.1 125.9 180.4 126.1Z" fill="#16110D"/>
<path d="M183.6 124.3C183.9 124.5 183.9 124.8 183.6 125C183.3 125.2 182.7 125.2 182.4 125C182.1 124.8 182.1 124.5 182.4 124.3C182.7 124.1 183.3 124.1 183.6 124.3Z" fill="#16110D"/>
<path d="M186.8 122.4C187.1 122.6 187.1 122.9 186.8 123.1C186.5 123.3 185.9 123.3 185.6 123.1C185.3 122.9 185.3 122.6 185.6 122.4C185.9 122.2 186.5 122.2 186.8 122.4Z" fill="#16110D"/>
<path d="M153.7 137.2C154 137 154.6 137 154.9 137.2C155.2 137.4 155.2 137.7 154.9 137.9C154.6 138.1 154 138.1 153.7 137.9C153.4 137.7 153.4 137.4 153.7 137.2Z" fill="#16110D"/>
<path d="M158.1 135.3C158.4 135.5 158.4 135.8 158.1 136C157.8 136.2 157.2 136.2 156.9 136C156.6 135.8 156.6 135.5 156.9 135.3C157.2 135.1 157.8 135.1 158.1 135.3Z" fill="#16110D"/>
<path d="M161.3 133.5C161.6 133.7 161.6 134 161.3 134.2C161 134.4 160.4 134.4 160.1 134.2C159.8 134 159.8 133.7 160.1 133.5C160.4 133.3 161 133.3 161.3 133.5Z" fill="#16110D"/>
<path d="M164.5 131.6C164.8 131.8 164.8 132.1 164.5 132.3C164.2 132.5 163.6 132.5 163.3 132.3C163 132.1 163 131.8 163.3 131.6C163.6 131.5 164.2 131.5 164.5 131.6Z" fill="#16110D"/>
<path d="M167.7 129.8C168 130 168 130.3 167.7 130.5C167.4 130.7 166.8 130.7 166.5 130.5C166.2 130.3 166.2 130 166.5 129.8C166.8 129.6 167.4 129.6 167.7 129.8Z" fill="#16110D"/>
<path d="M170.9 128C171.2 128.2 171.2 128.5 170.9 128.7C170.6 128.9 170 128.9 169.7 128.7C169.4 128.5 169.4 128.2 169.7 128C170 127.8 170.5 127.8 170.9 128Z" fill="#16110D"/>
<path d="M174.1 126.1C174.4 126.3 174.4 126.6 174.1 126.8C173.8 127 173.2 127 172.9 126.8C172.6 126.6 172.6 126.3 172.9 126.1C173.2 125.9 173.7 125.9 174.1 126.1Z" fill="#16110D"/>
<path d="M177.3 124.3C177.6 124.5 177.6 124.8 177.3 125C177 125.2 176.4 125.2 176.1 125C175.8 124.8 175.8 124.5 176.1 124.3C176.4 124.1 176.9 124.1 177.3 124.3Z" fill="#16110D"/>
<path d="M180.4 122.4C180.7 122.6 180.7 122.9 180.4 123.1C180.1 123.3 179.5 123.3 179.2 123.1C178.9 122.9 178.9 122.6 179.2 122.4C179.6 122.2 180.1 122.2 180.4 122.4Z" fill="#16110D"/>
<path d="M183.6 120.6C183.9 120.8 183.9 121.1 183.6 121.3C183.3 121.5 182.7 121.5 182.4 121.3C182.1 121.1 182.1 120.8 182.4 120.6C182.7 120.4 183.3 120.4 183.6 120.6Z" fill="#16110D"/>
<path d="M186.8 118.8C187.1 119 187.1 119.3 186.8 119.5C186.5 119.7 185.9 119.7 185.6 119.5C185.3 119.3 185.3 119 185.6 118.8C185.9 118.6 186.5 118.6 186.8 118.8Z" fill="#16110D"/>
<path d="M150.5 135.3C150.8 135.1 151.4 135.1 151.7 135.3C152 135.5 152 135.8 151.7 136C151.4 136.2 150.8 136.2 150.5 136C150.2 135.8 150.2 135.5 150.5 135.3Z" fill="#16110D"/>
<path d="M154.9 133.5C155.2 133.7 155.2 134 154.9 134.2C154.6 134.4 154 134.4 153.7 134.2C153.4 134 153.4 133.7 153.7 133.5C154 133.3 154.6 133.3 154.9 133.5Z" fill="#16110D"/>
<path d="M158.1 131.6C158.4 131.8 158.4 132.1 158.1 132.3C157.8 132.5 157.2 132.5 156.9 132.3C156.6 132.1 156.6 131.8 156.9 131.6C157.2 131.5 157.8 131.5 158.1 131.6Z" fill="#16110D"/>
<path d="M161.3 129.8C161.6 130 161.6 130.3 161.3 130.5C161 130.7 160.4 130.7 160.1 130.5C159.8 130.3 159.8 130 160.1 129.8C160.4 129.6 161 129.6 161.3 129.8Z" fill="#16110D"/>
<path d="M164.5 128C164.8 128.2 164.8 128.5 164.5 128.7C164.2 128.9 163.6 128.9 163.3 128.7C163 128.5 163 128.2 163.3 128C163.6 127.8 164.2 127.8 164.5 128Z" fill="#16110D"/>
<path d="M167.7 126.1C168 126.3 168 126.6 167.7 126.8C167.4 127 166.8 127 166.5 126.8C166.2 126.6 166.2 126.3 166.5 126.1C166.8 125.9 167.4 125.9 167.7 126.1Z" fill="#16110D"/>
<path d="M170.9 124.3C171.2 124.5 171.2 124.8 170.9 125C170.6 125.2 170 125.2 169.7 125C169.4 124.8 169.4 124.5 169.7 124.3C170 124.1 170.5 124.1 170.9 124.3Z" fill="#16110D"/>
<path d="M174.1 122.4C174.4 122.6 174.4 122.9 174.1 123.1C173.8 123.3 173.2 123.3 172.9 123.1C172.6 122.9 172.6 122.6 172.9 122.4C173.2 122.2 173.7 122.2 174.1 122.4Z" fill="#16110D"/>
<path d="M177.3 120.6C177.6 120.8 177.6 121.1 177.3 121.3C177 121.5 176.4 121.5 176.1 121.3C175.8 121.1 175.8 120.8 176.1 120.6C176.4 120.4 176.9 120.4 177.3 120.6Z" fill="#16110D"/>
<path d="M180.4 118.8C180.7 119 180.7 119.3 180.4 119.5C180.1 119.7 179.5 119.7 179.2 119.5C178.9 119.3 178.9 119 179.2 118.8C179.6 118.6 180.1 118.6 180.4 118.8Z" fill="#16110D"/>
<path d="M183.6 116.9C183.9 117.1 183.9 117.4 183.6 117.6C183.3 117.8 182.7 117.8 182.4 117.6C182.1 117.4 182.1 117.1 182.4 116.9C182.7 116.7 183.3 116.7 183.6 116.9Z" fill="#16110D"/>
<path d="M147.3 133.5C147.6 133.3 148.2 133.3 148.5 133.5C148.8 133.7 148.8 134 148.5 134.2C148.2 134.4 147.6 134.4 147.3 134.2C147 134 147 133.7 147.3 133.5Z" fill="#16110D"/>
<path d="M151.7 131.6C152 131.8 152 132.1 151.7 132.3C151.4 132.5 150.8 132.5 150.5 132.3C150.2 132.1 150.2 131.8 150.5 131.6C150.8 131.4 151.4 131.4 151.7 131.6Z" fill="#16110D"/>
<path d="M154.9 129.8C155.2 130 155.2 130.3 154.9 130.5C154.6 130.7 154 130.7 153.7 130.5C153.4 130.3 153.4 130 153.7 129.8C154 129.6 154.6 129.6 154.9 129.8Z" fill="#16110D"/>
<path d="M158.1 127.9C158.4 128.1 158.4 128.4 158.1 128.6C157.8 128.8 157.2 128.8 156.9 128.6C156.6 128.4 156.6 128.1 156.9 127.9C157.2 127.7 157.8 127.7 158.1 127.9Z" fill="#16110D"/>
<path d="M161.3 126.1C161.6 126.3 161.6 126.6 161.3 126.8C161 127 160.4 127 160.1 126.8C159.8 126.6 159.8 126.3 160.1 126.1C160.4 125.9 160.9 125.9 161.3 126.1Z" fill="#16110D"/>
<path d="M164.5 124.3C164.8 124.5 164.8 124.8 164.5 125C164.2 125.2 163.6 125.2 163.3 125C163 124.8 163 124.5 163.3 124.3C163.6 124.1 164.1 124.1 164.5 124.3Z" fill="#16110D"/>
<path d="M167.7 122.4C168 122.6 168 122.9 167.7 123.1C167.4 123.3 166.8 123.3 166.5 123.1C166.2 122.9 166.2 122.6 166.5 122.4C166.8 122.2 167.3 122.2 167.7 122.4Z" fill="#16110D"/>
<path d="M170.8 120.6C171.1 120.8 171.1 121.1 170.8 121.3C170.5 121.5 169.9 121.5 169.6 121.3C169.3 121.1 169.3 120.8 169.6 120.6C170 120.4 170.5 120.4 170.8 120.6Z" fill="#16110D"/>
<path d="M174 118.7C174.3 118.9 174.3 119.2 174 119.4C173.7 119.6 173.1 119.6 172.8 119.4C172.5 119.2 172.5 118.9 172.8 118.7C173.2 118.5 173.7 118.5 174 118.7Z" fill="#16110D"/>
<path d="M177.2 116.9C177.5 117.1 177.5 117.4 177.2 117.6C176.9 117.8 176.3 117.8 176 117.6C175.7 117.4 175.7 117.1 176 116.9C176.3 116.7 176.9 116.7 177.2 116.9Z" fill="#16110D"/>
<path d="M144.1 131.6C144.4 131.4 145 131.4 145.3 131.6C145.6 131.8 145.6 132.1 145.3 132.3C145 132.5 144.4 132.5 144.1 132.3C143.8 132.1 143.8 131.8 144.1 131.6Z" fill="#16110D"/>
<path d="M148.5 129.8C148.8 130 148.8 130.3 148.5 130.5C148.2 130.7 147.6 130.7 147.3 130.5C147 130.3 147 130 147.3 129.8C147.6 129.6 148.2 129.6 148.5 129.8Z" fill="#16110D"/>
<path d="M151.7 127.9C152 128.1 152 128.4 151.7 128.6C151.4 128.8 150.8 128.8 150.5 128.6C150.2 128.4 150.2 128.1 150.5 127.9C150.8 127.7 151.4 127.7 151.7 127.9Z" fill="#16110D"/>
<path d="M154.9 126.1C155.2 126.3 155.2 126.6 154.9 126.8C154.6 127 154 127 153.7 126.8C153.4 126.6 153.4 126.3 153.7 126.1C154 125.9 154.6 125.9 154.9 126.1Z" fill="#16110D"/>
<path d="M158.1 124.3C158.4 124.5 158.4 124.8 158.1 125C157.8 125.2 157.2 125.2 156.9 125C156.6 124.8 156.6 124.5 156.9 124.3C157.2 124.1 157.8 124.1 158.1 124.3Z" fill="#16110D"/>
<path d="M161.3 122.4C161.6 122.6 161.6 122.9 161.3 123.1C161 123.3 160.4 123.3 160.1 123.1C159.8 122.9 159.8 122.6 160.1 122.4C160.4 122.2 160.9 122.2 161.3 122.4Z" fill="#16110D"/>
<path d="M164.5 120.6C164.8 120.8 164.8 121.1 164.5 121.3C164.2 121.5 163.6 121.5 163.3 121.3C163 121.1 163 120.8 163.3 120.6C163.6 120.4 164.1 120.4 164.5 120.6Z" fill="#16110D"/>
<path d="M166.4 118.7C166.7 118.5 167.3 118.5 167.6 118.7C167.9 118.9 167.9 119.2 167.6 119.4C167.3 119.6 166.7 119.6 166.4 119.4C166.1 119.2 166.1 118.9 166.4 118.7C166.8 118.5 166.1 118.9 166.4 118.7Z" fill="#16110D"/>
<path d="M140.9 129.8C141.2 129.6 141.8 129.6 142.1 129.8C142.4 130 142.4 130.3 142.1 130.5C141.8 130.7 141.2 130.7 140.9 130.5C140.6 130.3 140.6 130 140.9 129.8Z" fill="#16110D"/>
<path d="M145.3 127.9C145.6 128.1 145.6 128.4 145.3 128.6C145 128.8 144.4 128.8 144.1 128.6C143.8 128.4 143.8 128.1 144.1 127.9C144.5 127.7 145 127.7 145.3 127.9Z" fill="#16110D"/>
<path d="M148.5 126.1C148.8 126.3 148.8 126.6 148.5 126.8C148.2 127 147.6 127 147.3 126.8C147 126.6 147 126.3 147.3 126.1C147.6 125.9 148.2 125.9 148.5 126.1Z" fill="#16110D"/>
<path d="M151.7 124.3C152 124.5 152 124.8 151.7 125C151.4 125.2 150.8 125.2 150.5 125C150.2 124.8 150.2 124.5 150.5 124.3C150.8 124.1 151.4 124.1 151.7 124.3Z" fill="#16110D"/>
<path d="M154.9 122.4C155.2 122.6 155.2 122.9 154.9 123.1C154.6 123.3 154 123.3 153.7 123.1C153.4 122.9 153.4 122.6 153.7 122.4C154 122.2 154.6 122.2 154.9 122.4Z" fill="#16110D"/>
<path d="M137.7 127.9C138 127.7 138.6 127.7 138.9 127.9C139.2 128.1 139.2 128.4 138.9 128.6C138.6 128.8 138 128.8 137.7 128.6C137.4 128.5 137.4 128.1 137.7 127.9Z" fill="#16110D"/>
<path d="M142.1 126.1C142.4 126.3 142.4 126.6 142.1 126.8C141.8 127 141.2 127 140.9 126.8C140.6 126.6 140.6 126.3 140.9 126.1C141.3 125.9 141.8 125.9 142.1 126.1Z" fill="#16110D"/>
<path d="M145.3 124.3C145.6 124.5 145.6 124.8 145.3 125C145 125.2 144.4 125.2 144.1 125C143.8 124.8 143.8 124.5 144.1 124.3C144.5 124.1 145 124.1 145.3 124.3Z" fill="#16110D"/>
<path d="M183.9 115.9V113.6L90.1 61.7C88 60.5 84.2 60.6 81.7 62L13.2 101.3L8.30005 101.6V104.1C8.30005 104.2 8.30005 104.2 8.30005 104.3C8.40005 105 8.80005 105.7 9.70005 106.3L102.1 160C104.2 161.2 108 161.1 110.5 159.7L181.9 118.8C183.3 117.9 184 116.9 183.9 115.9Z" fill="#FFBE2E"/>
<path d="M184.2 115.8V113.5L178.1 110.2L107.8 153L106.1 158V158.3V160.7C107.8 160.7 109.5 160.3 110.9 159.5L182.3 118.6C183.6 117.8 184.3 116.8 184.2 115.8Z" fill="#16110D"/>
<path d="M105.8 161.1C104.4 161.1 103 160.8 102 160.2L9.6 106.5C8.6 105.9 8.1 105.2 8 104.3C8 104.2 8 104.1 8 104.1V101.4L13.1 101L81.5 61.8C84.1 60.3 88 60.2 90.2 61.5L184.2 113.5V116C184.3 117.1 183.5 118.3 182 119.1L110.6 160C109.3 160.7 107.5 161.1 105.8 161.1ZM8.6 101.9V104.1C8.6 104.2 8.6 104.2 8.6 104.3C8.6 105 9.1 105.6 9.9 106L102.3 159.8C104.4 161 108 160.8 110.4 159.5L181.8 118.6C183.1 117.9 183.8 116.9 183.7 116V113.8L89.9 61.9C87.8 60.7 84.2 60.9 81.8 62.2L13.3 101.6L8.6 101.9Z" fill="#16110D"/>
<path d="M102.1 157.4L9.70001 103.6C7.60001 102.4 7.80001 100.2 10.3 98.8L81.7 57.9C84.2 56.5 87.9 56.3 90.1 57.6L182.5 111.4C184.6 112.6 184.4 114.8 181.9 116.2L110.5 157C108 158.4 104.3 158.6 102.1 157.4Z" fill="#FFBE2E"/>
<path d="M182.1 113.6L89.7 59.9C87.6 58.7 83.8 58.8 81.3 60.2L10 101.1C9.3 101.5 8.8 101.9 8.5 102.4C8.7 102.8 9.1 103.2 9.7 103.5L102 157.2C104.1 158.4 107.9 158.3 110.4 156.9L181.8 116C182.5 115.6 183 115.2 183.3 114.7C183 114.3 182.6 113.9 182.1 113.6Z" fill="#FFEECC"/>
<path d="M105.8 158.5C104.4 158.5 103 158.2 102 157.6L9.6 103.8C8.6 103.2 8 102.4 8 101.4C8 100.3 8.8 99.2 10.2 98.4L81.6 57.5C84.2 56 88.1 55.9 90.3 57.2L182.7 111C183.7 111.6 184.3 112.4 184.3 113.4C184.3 114.5 183.5 115.6 182.1 116.4L110.7 157.3C109.3 158.1 107.5 158.5 105.8 158.5ZM102.3 157.1C104.4 158.3 108 158.1 110.4 156.8L181.8 115.9C183 115.2 183.7 114.3 183.7 113.4C183.7 112.7 183.2 112 182.4 111.5L89.9 57.7C87.8 56.5 84.2 56.7 81.8 58L10.5 99C9.3 99.7 8.6 100.6 8.6 101.5C8.6 102.2 9.1 102.9 9.9 103.4L102.3 157.1Z" fill="#16110D"/>
<path d="M170.9 112.2V109.7L166.4 110L90.1 65.6C88 64.4 84.2 64.5 81.7 65.9L25.4 98.3L20.5 98.6V101.1C20.5 101.2 20.5 101.2 20.5 101.3C20.6 102 21 102.7 21.9 103.3L101.2 149.5C103.3 150.7 107.1 150.6 109.6 149.2L168.9 115.1C170.3 114.3 171 113.2 170.9 112.2Z" fill="#FFBE2E"/>
<path d="M170.9 112.1V109.6L166.4 109.9L165.7 109.5L162.5 110.8L104.7 146.1V147.5V150.2C106.4 150.2 108.1 149.8 109.5 149L168.8 114.9C170.3 114.2 171 113.1 170.9 112.1Z" fill="#16110D"/>
<path d="M104.8 150.6C103.4 150.6 102 150.3 101 149.7L21.7001 103.6C20.7001 103 20.2001 102.3 20.1001 101.4C20.1001 101.3 20.1001 101.2 20.1001 101.2V98.5L25.2001 98.1L81.5001 65.7C84.1001 64.2 88.0001 64.1 90.2001 65.4L166.4 109.8L171.1 109.5V112.4C171.1 112.5 171.1 112.5 171.1 112.6V112.7C171 113.7 170.2 114.8 168.9 115.5L109.6 149.6C108.3 150.2 106.5 150.6 104.8 150.6ZM20.7001 99V101.2C20.7001 101.3 20.7001 101.3 20.7001 101.4C20.7001 102.1 21.2001 102.7 22.0001 103.1L101.3 149.3C103.4 150.5 107 150.3 109.4 149L168.7 114.9C170 114.2 170.7 113.2 170.6 112.3V112V110L166.3 110.3H166.2L90.0001 65.8C87.9001 64.6 84.3001 64.8 81.9001 66.1L25.5001 98.6L20.7001 99Z" fill="#16110D"/>
<path d="M101.2 146.8L21.9002 100.7C19.8002 99.5 20.0002 97.3 22.5002 95.9L81.8002 61.8C84.3002 60.4 88.0002 60.2 90.2002 61.5L169.5 107.7C171.6 108.9 171.4 111.1 168.9 112.5L109.6 146.6C107.1 147.9 103.3 148.1 101.2 146.8Z" fill="#FFBE2E"/>
<path d="M169.2 110.4L89.9001 64.3C87.8001 63.1 84.0001 63.2 81.5001 64.6L22.3001 98.7C21.7001 99.1 21.2001 99.5 20.9001 99.9C21.1001 100.2 21.4001 100.4 21.8001 100.6L101 146.8C103.1 148 106.9 147.9 109.4 146.5L168.7 112.4C169.3 112 169.8 111.6 170.1 111.2C169.9 110.9 169.6 110.7 169.2 110.4Z" fill="#FFEECC"/>
<path d="M104.8 147.9C103.4 147.9 102 147.6 101 147L21.7001 100.9C20.7001 100.3 20.1001 99.5 20.1001 98.5C20.1001 97.4 20.9001 96.3 22.3001 95.5L81.6001 61.4C84.2001 59.9 88.1001 59.8 90.3001 61.1L169.6 107.3C170.6 107.9 171.2 108.7 171.2 109.7C171.2 110.8 170.4 111.9 169 112.7L109.7 146.8C108.3 147.5 106.5 147.9 104.8 147.9ZM101.3 146.6C103.4 147.8 107 147.6 109.4 146.3L168.7 112.2C169.9 111.5 170.6 110.6 170.6 109.7C170.6 109 170.1 108.3 169.3 107.8L90.0001 61.7C87.9001 60.5 84.3001 60.7 81.9001 62L22.6001 96.1C21.4001 96.8 20.7001 97.7 20.7001 98.6C20.7001 99.3 21.2001 100 22.0001 100.5L101.3 146.6Z" fill="#16110D"/>
<path d="M65.1999 88.5V86.6H62.3999L58.2999 84.3C57.7999 84 56.8999 84 56.2999 84.3L52.1999 86.6H49.3999V88.5C49.3999 88.7 49.4999 88.9 49.7999 89.1L56.3999 92.8C56.8999 93.1 57.7999 93.1 58.3999 92.8L64.9999 89.1C64.9999 88.9 65.1999 88.7 65.1999 88.5Z" fill="#FFBE2E"/>
<path d="M57.1999 93.3C56.7999 93.3 56.3999 93.2 56.0999 93L49.4999 89.3C49.0999 89.1 48.8999 88.8 48.8999 88.5V86.3H51.9999L56.0999 84C56.6999 83.6 57.6999 83.6 58.3999 84L62.4999 86.3H65.5999V88.5C65.5999 88.8 65.3999 89.1 64.9999 89.3L58.3999 93C57.9999 93.2 57.5999 93.3 57.1999 93.3ZM49.4999 86.9V88.5C49.4999 88.6 49.5999 88.7 49.7999 88.8L56.3999 92.5C56.8999 92.8 57.5999 92.8 58.0999 92.5L64.6999 88.8C64.8999 88.7 64.9999 88.6 64.9999 88.5V86.9H62.3999L58.1999 84.5C57.6999 84.2 56.9999 84.2 56.4999 84.5L52.2999 86.9H49.4999Z" fill="#16110D"/>
<path d="M64.7999 87.1L58.1999 90.8C57.6999 91.1 56.7999 91.1 56.1999 90.8L49.5999 87.1C49.0999 86.8 49.0999 86.3 49.5999 86L56.1999 82.3C56.6999 82 57.5999 82 58.1999 82.3L64.7999 86C65.2999 86.3 65.2999 86.8 64.7999 87.1Z" fill="#FFBE2E"/>
<path d="M57.1999 91.4C56.7999 91.4 56.3999 91.3 56.0999 91.1L49.4999 87.4C49.0999 87.2 48.8999 86.9 48.8999 86.6C48.8999 86.3 49.0999 86 49.4999 85.8L56.0999 82.1C56.6999 81.7 57.6999 81.7 58.3999 82.1L64.9999 85.8C65.3999 86 65.5999 86.3 65.5999 86.6C65.5999 86.9 65.3999 87.2 64.9999 87.4L58.3999 91.1C57.9999 91.3 57.5999 91.4 57.1999 91.4ZM57.1999 82.4C56.8999 82.4 56.5999 82.5 56.2999 82.6L49.6999 86.3C49.4999 86.4 49.3999 86.5 49.3999 86.6C49.3999 86.7 49.4999 86.8 49.6999 86.9L56.2999 90.6C56.7999 90.9 57.4999 90.9 57.9999 90.6L64.5999 86.9C64.7999 86.8 64.8999 86.7 64.8999 86.6C64.8999 86.5 64.7999 86.4 64.5999 86.3L57.9999 82.6C57.7999 82.4 57.4999 82.4 57.1999 82.4Z" fill="#16110D"/>
<path d="M148.7 98.2V98.1V61L60.2001 58.1V95.3C60.1001 96 60.5001 96.8 61.4001 97.3L103.8 121.6C105.6 122.6 108.7 122.5 110.7 121.3L147 100.5C148.1 99.9 148.7 98.9 148.7 98.1V98.2Z" fill="#FFBE2E"/>
<path d="M106.8 122.6C105.6 122.6 104.5 122.4 103.6 121.9L61.3 97.6C60.3 97 59.8 96.2 60 95.3V57.8H60.3L149 60.7V98.1V98.2C148.9 99.1 148.3 100.1 147.2 100.7L111 121.5C109.8 122.2 108.3 122.6 106.8 122.6ZM60.5 58.5V95.4C60.4 96.1 60.8 96.7 61.5 97.1L104 121.4C105.7 122.4 108.7 122.3 110.6 121.1L146.8 100.3C147.7 99.8 148.3 98.9 148.3 98.2V61.4L60.5 58.5Z" fill="#16110D"/>
<path d="M104.8 59.4V121.7C106.6 122.4 109.3 122.2 111.1 121.1L147.3 100.3C148.4 99.7 149 98.7 149 97.9V60.8L104.8 59.4Z" fill="#16110D"/>
<path d="M50.0999 97V95H47.2999L43.2 92.7C42.7 92.4 41.8 92.4 41.2 92.7L37 95H34.2V97C34.2 97.2 34.3 97.4 34.6 97.6L41.2 101.3C41.7 101.6 42.6 101.6 43.2 101.3L49.7999 97.6C49.9 97.4 50.0999 97.2 50.0999 97Z" fill="#FFBE2E"/>
<path d="M42.1 101.8C41.7 101.8 41.3 101.7 41 101.5L34.4 97.8C34 97.6 33.8 97.3 33.8 97V95.2C33.8 95 34 94.7 34.3 94.7H36.9L41 92.4C41.6 92 42.6 92 43.3 92.4L47.4001 94.7H50C50.3 94.7 50.5 94.9 50.5 95.2V97C50.5 97.3 50.3001 97.6 49.9001 97.8L43.3 101.5C42.9 101.7 42.5 101.8 42.1 101.8ZM34.4 95.3V97C34.4 97.1 34.5001 97.2 34.7001 97.3L41.3 101C41.8 101.3 42.5 101.3 43 101L49.6 97.3C49.8 97.2 49.9001 97.1 49.9001 97V95.4H47.3L43 92.9C42.5 92.6 41.8 92.6 41.3 92.9L37.1 95.3H34.4Z" fill="#16110D"/>
<path d="M49.7 95.6L43.1 99.3C42.6 99.6 41.7 99.6 41.1 99.3L34.5 95.6C34 95.3 34 94.8 34.5 94.5L41.1 90.8C41.6 90.5 42.5 90.5 43.1 90.8L49.7 94.5C50.2 94.8 50.2 95.3 49.7 95.6Z" fill="#FFBE2E"/>
<path d="M42.1 99.8C41.7 99.8 41.3 99.7 41 99.5L34.4 95.8C34 95.6 33.8 95.3 33.8 95C33.8 94.7 34 94.4 34.4 94.2L41 90.5C41.6 90.1 42.6 90.1 43.3 90.5L49.9001 94.2C50.3001 94.4 50.5 94.7 50.5 95C50.5 95.3 50.3001 95.6 49.9001 95.8L43.3 99.5C42.9 99.7 42.5 99.8 42.1 99.8ZM42.1 90.8C41.8 90.8 41.5001 90.9 41.2001 91L34.6 94.7C34.4 94.8 34.3 94.9 34.3 95C34.3 95.1 34.4 95.2 34.6 95.3L41.2001 99C41.7001 99.3 42.4001 99.3 42.9001 99L49.5 95.3C49.7 95.2 49.8 95.1 49.8 95C49.8 94.9 49.7 94.8 49.5 94.7L43 91C42.7 90.9 42.4 90.8 42.1 90.8Z" fill="#16110D"/>
<path d="M37.8999 60.1V94.5C37.8999 95.1 38.2999 95.7 39.0999 96.1C40.6999 97 43.3999 97 44.9999 96.1C45.7999 95.6 46.1999 95.1 46.1999 94.5V60.1H37.8999Z" fill="#FFBE2E"/>
<path d="M41.7001 60.1H38.8V94.5C38.8 95.1 39.2 95.7 40 96.1C40.5 96.4 41 96.5 41.6 96.7V60.1H41.7001Z" fill="#FFEECC"/>
<path d="M42.0999 97.1C40.9999 97.1 39.9 96.9 39 96.4C38.3 96 37.8 95.4 37.7 94.8V94.5V59.8H46.5999V94.8C46.4999 95.4 45.9999 96 45.2999 96.4C44.3999 96.8 43.1999 97.1 42.0999 97.1ZM38.2 94.4C38.2 95 38.5999 95.5 39.2999 95.9C40.8999 96.8 43.4 96.8 44.9 95.9C45.6 95.5 46 95 46 94.5V94.4V60.4H38.2V94.4Z" fill="#16110D"/>
<path d="M41.9001 99.5V101.5L43.4001 101L50.1001 97.3L50.0001 95.4L43.1001 99.3L41.9001 99.5Z" fill="#16110D"/>
<path d="M44 64.5V96.4L45.1 96.1L46.3 95V60.3L44.7 60.7L44 64.5Z" fill="#16110D"/>
<path d="M159.9 109.5V107.6H157.1L153 105.3C152.5 105 151.6 105 151 105.3L146.9 107.6H144V109.5C144 109.7 144.1 109.9 144.4 110.1L151 113.8C151.5 114.1 152.4 114.1 153 113.8L159.6 110.1C159.8 109.9 159.9 109.7 159.9 109.5Z" fill="#FFBE2E"/>
<path d="M152 114.3C151.6 114.3 151.2 114.2 150.9 114L144.3 110.3C143.9 110.1 143.7 109.8 143.7 109.5V107.7C143.7 107.5 143.9 107.2 144.2 107.2H146.8L150.9 104.9C151.5 104.5 152.5 104.5 153.2 104.9L157.3 107.2H159.9C160.2 107.2 160.4 107.4 160.4 107.7V109.5C160.4 109.8 160.2 110.1 159.8 110.3L153.2 114C152.8 114.2 152.4 114.3 152 114.3ZM144.3 107.9V109.5C144.3 109.6 144.4 109.7 144.6 109.8L151.2 113.5C151.7 113.8 152.4 113.8 152.9 113.5L159.5 109.8C159.7 109.7 159.8 109.6 159.8 109.5V107.9H157L152.8 105.5C152.3 105.2 151.6 105.2 151.1 105.5L146.9 107.9H144.3Z" fill="#16110D"/>
<path d="M159.5 108.1L152.9 111.8C152.4 112.1 151.5 112.1 150.9 111.8L144.3 108.1C143.8 107.8 143.8 107.3 144.3 107L150.9 103.3C151.4 103 152.3 103 152.9 103.3L159.5 107C160.1 107.3 160.1 107.8 159.5 108.1Z" fill="#FFBE2E"/>
<path d="M152 112.4C151.6 112.4 151.2 112.3 150.9 112.1L144.3 108.4C143.9 108.2 143.7 107.9 143.7 107.6C143.7 107.3 143.9 107 144.3 106.8L150.9 103.1C151.5 102.7 152.5 102.7 153.2 103.1L159.8 106.8C160.2 107 160.4 107.3 160.4 107.6C160.4 107.9 160.2 108.2 159.8 108.4L153.2 112.1C152.8 112.3 152.4 112.4 152 112.4ZM152 103.4C151.7 103.4 151.4 103.5 151.1 103.6L144.5 107.3C144.3 107.4 144.2 107.5 144.2 107.6C144.2 107.7 144.3 107.8 144.5 107.9L151.1 111.6C151.6 111.9 152.3 111.9 152.8 111.6L159.4 107.9C159.6 107.8 159.7 107.7 159.7 107.6C159.7 107.5 159.6 107.4 159.4 107.3L152.8 103.6C152.6 103.4 152.3 103.4 152 103.4Z" fill="#16110D"/>
<path d="M147.8 72.6V107C147.8 107.6 148.2 108.2 149 108.6C150.6 109.5 153.3 109.5 154.9 108.6C155.7 108.1 156.1 107.6 156.1 107V72.6H147.8Z" fill="#FFBE2E"/>
<path d="M151.5 72.7H148.6V107.1C148.6 107.7 149 108.3 149.8 108.7C150.3 109 150.8 109.1 151.4 109.3V72.7H151.5Z" fill="#FFEECC"/>
<path d="M152 109.6C150.9 109.6 149.8 109.4 148.9 108.9C148.2 108.5 147.7 107.9 147.6 107.3V107V72.3H156.5V107.3C156.4 107.9 155.9 108.5 155.2 108.9C154.2 109.4 153.1 109.6 152 109.6ZM148.1 106.9C148.1 107.5 148.5 108 149.2 108.4C150.8 109.3 153.3 109.3 154.8 108.4C155.5 108 155.9 107.5 155.9 107V106.9V72.9H148.1V106.9Z" fill="#16110D"/>
<path d="M151.7 112.1V114L153.3 113.6L159.9 109.9L159.8 107.9L152.9 111.9L151.7 112.1Z" fill="#16110D"/>
<path d="M153.8 77V108.9L154.9 108.7L156.1 107.6V72.9L154.5 73.3L153.8 77Z" fill="#16110D"/>
<path d="M145.4 117.4V115.5H142.6L138.5 113.2C138 112.9 137.1 112.9 136.5 113.2L132.4 115.5H129.6V117.4C129.6 117.6 129.7 117.8 130 118L136.6 121.7C137.1 122 138 122 138.6 121.7L145.2 118C145.3 117.8 145.4 117.6 145.4 117.4Z" fill="#FFBE2E"/>
<path d="M137.5 122.2C137.1 122.2 136.7 122.1 136.4 121.9L129.8 118.2C129.4 118 129.2 117.7 129.2 117.4V115.6C129.2 115.4 129.4 115.1 129.7 115.1H132.3L136.4 112.8C137 112.4 138 112.4 138.7 112.8L142.8 115.1H145.4C145.7 115.1 145.9 115.3 145.9 115.6V117.4C145.9 117.7 145.7 118 145.3 118.2L138.7 121.9C138.3 122.1 137.9 122.2 137.5 122.2ZM129.8 115.7V117.3C129.8 117.4 129.9 117.5 130.1 117.6L136.7 121.3C137.2 121.6 137.9 121.6 138.4 121.3L145 117.6C145.2 117.5 145.3 117.4 145.3 117.3V115.7H142.7L138.5 113.3C138 113 137.3 113 136.8 113.3L132.6 115.7H129.8Z" fill="#16110D"/>
<path d="M145 116L138.4 119.7C137.9 120 137 120 136.4 119.7L129.8 116C129.3 115.7 129.3 115.2 129.8 114.9L136.4 111.2C136.9 110.9 137.8 110.9 138.4 111.2L145 114.9C145.6 115.2 145.6 115.7 145 116Z" fill="#FFBE2E"/>
<path d="M137.5 120.2C137.1 120.2 136.7 120.1 136.4 119.9L129.8 116.2C129.4 116 129.2 115.7 129.2 115.4C129.2 115.1 129.4 114.8 129.8 114.6L136.4 110.9C137 110.5 138 110.5 138.7 110.9L145.3 114.6C145.7 114.8 145.9 115.1 145.9 115.4C145.9 115.7 145.7 116 145.3 116.2L138.7 119.9C138.3 120.1 137.9 120.2 137.5 120.2ZM137.5 111.2C137.2 111.2 136.9 111.3 136.6 111.4L130 115.1C129.8 115.2 129.7 115.3 129.7 115.4C129.7 115.5 129.8 115.6 130 115.7L136.6 119.4C137.1 119.7 137.8 119.7 138.3 119.4L144.9 115.7C145.1 115.6 145.2 115.5 145.2 115.4C145.2 115.3 145.1 115.2 144.9 115.1L138.3 111.4C138.1 111.3 137.8 111.2 137.5 111.2Z" fill="#16110D"/>
<path d="M133.3 80.5V114.9C133.3 115.5 133.7 116.1 134.5 116.5C136.1 117.4 138.8 117.4 140.4 116.5C141.2 116 141.6 115.5 141.6 114.9V80.5H133.3Z" fill="#FFBE2E"/>
<path d="M137.1 80.5H134.2V114.9C134.2 115.5 134.6 116.1 135.4 116.5C135.9 116.8 136.4 116.9 137 117.1V80.5H137.1Z" fill="#FFEECC"/>
<path d="M137.5 117.5C136.4 117.5 135.3 117.3 134.4 116.8C133.7 116.4 133.2 115.8 133.1 115.2V114.9V80.2H142V115.2C141.9 115.8 141.4 116.4 140.7 116.8C139.7 117.3 138.6 117.5 137.5 117.5ZM133.6 114.8C133.6 115.4 134 115.9 134.7 116.3C136.3 117.2 138.8 117.2 140.3 116.3C141 115.9 141.4 115.4 141.4 114.9V114.8V80.8H133.6V114.8Z" fill="#16110D"/>
<path d="M137.3 119.9V121.9L138.8 121.5L145.4 117.7V115.8L138.5 119.7L137.3 119.9Z" fill="#16110D"/>
<path d="M139.3 84.9V116.8L140.4 116.5L141.7 115.4V80.8L140.1 81.1L139.3 84.9Z" fill="#16110D"/>
<path d="M131 125.7V123.8H128.2L124.1 121.5C123.6 121.2 122.7 121.2 122.1 121.5L118 123.8H115V125.7C115 125.9 115.1 126.1 115.4 126.3L122 130C122.5 130.3 123.4 130.3 124 130L130.6 126.3C130.8 126.2 131 125.9 131 125.7Z" fill="#FFBE2E"/>
<path d="M123 130.5C122.6 130.5 122.2 130.4 121.9 130.2L115.3 126.5C114.9 126.3 114.7 126 114.7 125.7V124C114.7 123.8 114.9 123.5 115.2 123.5H117.8L121.9 121.2C122.5 120.8 123.5 120.8 124.2 121.2L128.3 123.5H130.9C131.2 123.5 131.4 123.7 131.4 124V125.8C131.4 126.1 131.2 126.4 130.8 126.6L124.2 130.3C123.8 130.5 123.4 130.5 123 130.5ZM115.3 124.1V125.7C115.3 125.8 115.4 125.9 115.6 126L122.2 129.7C122.7 130 123.4 130 123.9 129.7L130.5 126C130.7 125.9 130.8 125.8 130.8 125.7V124.1H128.2L124 121.7C123.5 121.4 122.8 121.4 122.3 121.7L118.1 124.1H115.3Z" fill="#16110D"/>
<path d="M130.6 124.4L124 128.1C123.5 128.4 122.6 128.4 122 128.1L115.4 124.4C114.9 124.1 114.9 123.6 115.4 123.3L122 119.6C122.5 119.3 123.4 119.3 124 119.6L130.6 123.3C131.1 123.6 131.1 124.1 130.6 124.4Z" fill="#FFBE2E"/>
<path d="M123 128.6C122.6 128.6 122.2 128.5 121.9 128.3L115.3 124.6C114.9 124.4 114.7 124.1 114.7 123.8C114.7 123.5 114.9 123.2 115.3 123L121.9 119.3C122.5 118.9 123.5 118.9 124.2 119.3L130.8 123C131.2 123.2 131.4 123.5 131.4 123.8C131.4 124.1 131.2 124.4 130.8 124.6L124.2 128.3C123.8 128.5 123.4 128.6 123 128.6ZM123 119.6C122.7 119.6 122.4 119.7 122.1 119.8L115.5 123.5C115.3 123.6 115.2 123.7 115.2 123.8C115.2 123.9 115.3 124 115.5 124.1L122.1 127.8C122.6 128.1 123.3 128.1 123.8 127.8L130.4 124.1C130.6 124 130.7 123.9 130.7 123.8C130.7 123.7 130.6 123.6 130.4 123.5L123.8 119.8C123.6 119.6 123.3 119.6 123 119.6Z" fill="#16110D"/>
<path d="M118.8 88.8V123.2C118.8 123.8 119.2 124.4 120 124.8C121.6 125.7 124.3 125.7 125.9 124.8C126.7 124.3 127.1 123.8 127.1 123.2V88.8H118.8Z" fill="#FFBE2E"/>
<path d="M122.6 88.9H119.7V123.3C119.7 123.9 120.1 124.5 120.9 124.9C121.4 125.2 121.9 125.3 122.5 125.5V88.9H122.6Z" fill="#FFEECC"/>
<path d="M123 125.9C121.9 125.9 120.8 125.7 119.9 125.2C119.2 124.8 118.7 124.2 118.6 123.6V123.3V88.6H127.5V123.6C127.4 124.2 126.9 124.8 126.2 125.2C125.3 125.6 124.1 125.9 123 125.9ZM119.1 123.2C119.1 123.8 119.5 124.3 120.2 124.7C121.8 125.6 124.3 125.6 125.8 124.7C126.5 124.3 126.9 123.8 126.9 123.3V123.2V89.2H119.1V123.2Z" fill="#16110D"/>
<path d="M122.8 128.3V130.2L124.3 129.8L131 126.1L130.9 124.1L124 128.1L122.8 128.3Z" fill="#16110D"/>
<path d="M124.9 93.2V125.2L126 124.9L127.2 123.8V89.1L125.6 89.5L124.9 93.2Z" fill="#16110D"/>
<path d="M115.9 134.1V132.2H113L108.9 129.9C108.4 129.6 107.5 129.6 106.9 129.9L102.8 132.2H100V134.1C100 134.3 100.1 134.5 100.4 134.7L107 138.4C107.5 138.7 108.4 138.7 109 138.4L115.6 134.7C115.7 134.6 115.9 134.3 115.9 134.1Z" fill="#FFBE2E"/>
<path d="M107.9 138.9C107.5 138.9 107.1 138.8 106.8 138.6L100.2 134.9C99.8001 134.7 99.6001 134.4 99.6001 134.1V132.3C99.6001 132.1 99.8001 131.8 100.1 131.8H102.7L106.8 129.5C107.4 129.1 108.4 129.1 109.1 129.5L113.2 131.8H115.8C116.1 131.8 116.3 132 116.3 132.3V134.1C116.3 134.4 116.1 134.7 115.7 134.9L109.1 138.6C108.7 138.9 108.3 138.9 107.9 138.9ZM100.2 132.5V134.1C100.2 134.2 100.3 134.3 100.5 134.4L107.1 138.1C107.6 138.4 108.3 138.4 108.8 138.1L115.4 134.4C115.6 134.3 115.7 134.2 115.7 134.1V132.5H113L108.8 130.1C108.3 129.8 107.6 129.8 107.1 130.1L102.9 132.5H100.2Z" fill="#16110D"/>
<path d="M115.5 132.8L108.9 136.5C108.4 136.8 107.5 136.8 106.9 136.5L100.3 132.8C99.8 132.5 99.8 132 100.3 131.7L106.9 128C107.4 127.7 108.3 127.7 108.9 128L115.5 131.7C116 132 116 132.5 115.5 132.8Z" fill="#FFBE2E"/>
<path d="M107.9 137C107.5 137 107.1 136.9 106.8 136.7L100.2 133C99.8001 132.8 99.6001 132.5 99.6001 132.2C99.6001 131.9 99.8001 131.6 100.2 131.4L106.8 127.7C107.4 127.3 108.4 127.3 109.1 127.7L115.7 131.4C116.1 131.6 116.3 131.9 116.3 132.2C116.3 132.5 116.1 132.8 115.7 133L109.1 136.7C108.7 136.9 108.3 137 107.9 137ZM107.9 128C107.6 128 107.3 128.1 107 128.2L100.4 131.9C100.2 132 100.1 132.1 100.1 132.2C100.1 132.3 100.2 132.4 100.4 132.5L107 136.2C107.5 136.5 108.2 136.5 108.7 136.2L115.3 132.5C115.5 132.4 115.6 132.3 115.6 132.2C115.6 132.1 115.5 132 115.3 131.9L108.7 128.2C108.5 128 108.2 128 107.9 128Z" fill="#16110D"/>
<path d="M103.7 97.2V131.6C103.7 132.2 104.1 132.8 104.9 133.2C106.5 134.1 109.2 134.1 110.8 133.2C111.6 132.7 112 132.2 112 131.6V97.2H103.7Z" fill="#FFBE2E"/>
<path d="M107.5 97.3H104.6V131.7C104.6 132.3 105 132.9 105.8 133.3C106.3 133.6 106.8 133.7 107.4 133.9V97.3H107.5Z" fill="#FFEECC"/>
<path d="M107.9 134.3C106.8 134.3 105.7 134.1 104.8 133.6C104.1 133.2 103.6 132.6 103.5 132V131.7V97H112.4V132C112.3 132.6 111.8 133.2 111.1 133.6C110.2 134 109 134.3 107.9 134.3ZM104 131.6C104 132.2 104.4 132.7 105.1 133.1C106.7 134 109.2 134 110.7 133.1C111.4 132.7 111.8 132.2 111.8 131.7V131.6V97.6H104V131.6Z" fill="#16110D"/>
<path d="M107.7 136.7V138.6L109.2 138.2L115.9 134.5L115.8 132.5L108.9 136.5L107.7 136.7Z" fill="#16110D"/>
<path d="M109.8 101.6V133.6L110.9 133.3L112.1 132.2V97.5L110.5 97.9L109.8 101.6Z" fill="#16110D"/>
<path d="M99.9 125.6V123.7H97.1L93 121.4C92.5 121.1 91.6 121.1 91 121.4L86.9 123.7H84V125.6C84 125.8 84.1 126 84.4 126.2L91 129.9C91.5 130.2 92.4 130.2 93 129.9L99.6 126.2C99.8 126 99.9 125.8 99.9 125.6Z" fill="#FFBE2E"/>
<path d="M92 130.4C91.6 130.4 91.2 130.3 90.9 130.1L84.3 126.4C83.9 126.2 83.7 125.9 83.7 125.6V123.8C83.7 123.6 83.9 123.3 84.2 123.3H86.8L90.9 121C91.5 120.6 92.5 120.6 93.2 121L97.3 123.3H99.9C100.2 123.3 100.4 123.5 100.4 123.8V125.6C100.4 125.9 100.2 126.2 99.8 126.4L93.2 130.1C92.8 130.3 92.4 130.4 92 130.4ZM84.3 124V125.6C84.3 125.7 84.4 125.8 84.6 125.9L91.2 129.6C91.7 129.9 92.4 129.9 92.9 129.6L99.5 125.9C99.7 125.8 99.8 125.7 99.8 125.6V124H97L92.8 121.6C92.3 121.3 91.6 121.3 91.1 121.6L86.9 124H84.3Z" fill="#16110D"/>
<path d="M99.4999 124.2L92.9999 128C92.4999 128.3 91.5999 128.3 90.9999 128L84.3999 124.3C83.8999 124 83.8999 123.5 84.3999 123.2L90.9999 119.5C91.4999 119.2 92.3999 119.2 92.9999 119.5L99.5999 123.2C100.1 123.4 100.1 123.9 99.4999 124.2Z" fill="#FFBE2E"/>
<path d="M92 128.5C91.6 128.5 91.2 128.4 90.9 128.2L84.3 124.5C83.9 124.3 83.7 124 83.7 123.7C83.7 123.4 83.9 123.1 84.3 122.9L90.9 119.2C91.5 118.8 92.5 118.8 93.2 119.2L99.8 122.9C100.2 123.1 100.4 123.4 100.4 123.7C100.4 124 100.2 124.3 99.8 124.5L93.2 128.2C92.8 128.4 92.4 128.5 92 128.5ZM92 119.5C91.7 119.5 91.4 119.6 91.1 119.7L84.5 123.4C84.3 123.5 84.2 123.6 84.2 123.7C84.2 123.8 84.3 123.9 84.5 124L91.1 127.7C91.6 128 92.3 128 92.8 127.7L99.4 124C99.6 123.9 99.7 123.8 99.7 123.7C99.7 123.6 99.6 123.5 99.4 123.4L92.8 119.7C92.6 119.5 92.3 119.5 92 119.5Z" fill="#16110D"/>
<path d="M87.7998 88.7V123.1C87.7998 123.7 88.1998 124.3 88.9998 124.7C90.5998 125.6 93.2998 125.6 94.8998 124.7C95.6998 124.2 96.0998 123.7 96.0998 123.1V88.7H87.7998Z" fill="#FFBE2E"/>
<path d="M91.6 88.8H88.7V123.2C88.7 123.8 89.1 124.4 89.9 124.8C90.4 125.1 90.9 125.2 91.5 125.4V88.8H91.6Z" fill="#FFEECC"/>
<path d="M91.9999 125.7C90.8999 125.7 89.7999 125.5 88.8999 125C88.1999 124.6 87.6999 124 87.5999 123.4V123.1V88.4H96.4999V123.4C96.3999 124 95.8999 124.6 95.1999 125C94.1999 125.5 93.0999 125.7 91.9999 125.7ZM88.0999 123C88.0999 123.6 88.4999 124.1 89.1999 124.5C90.7999 125.4 93.2999 125.4 94.7999 124.5C95.4999 124.1 95.8999 123.6 95.8999 123.1V123V89H88.0999V123Z" fill="#16110D"/>
<path d="M91.8 128.2V130.1L93.3 129.7L99.9 126V124L93 128L91.8 128.2Z" fill="#16110D"/>
<path d="M93.8 93.1V125L94.9 124.8L96.2 123.7V89L94.6 89.4L93.8 93.1Z" fill="#16110D"/>
<path d="M65.1999 105.7V103.8H62.3999L58.2999 101.5C57.7999 101.2 56.8999 101.2 56.2999 101.5L52.1999 103.8H49.3999V105.7C49.3999 105.9 49.4999 106.1 49.7999 106.3L56.3999 110C56.8999 110.3 57.7999 110.3 58.3999 110L64.9999 106.3C64.9999 106.1 65.1999 105.9 65.1999 105.7Z" fill="#FFBE2E"/>
<path d="M57.1999 110.5C56.7999 110.5 56.3999 110.4 56.0999 110.2L49.4999 106.5C49.0999 106.3 48.8999 106 48.8999 105.7V103.9C48.8999 103.7 49.0999 103.4 49.3999 103.4H51.9999L56.0999 101.1C56.6999 100.7 57.6999 100.7 58.3999 101.1L62.4999 103.4H64.9999C65.2999 103.4 65.4999 103.6 65.4999 103.9V105.7C65.4999 106 65.2999 106.3 64.8999 106.5L58.2999 110.2C57.9999 110.4 57.5999 110.5 57.1999 110.5ZM49.4999 104V105.6C49.4999 105.7 49.5999 105.8 49.7999 105.9L56.3999 109.6C56.8999 109.9 57.5999 109.9 58.0999 109.6L64.6999 105.9C64.8999 105.8 64.9999 105.7 64.9999 105.6V104H62.3999L58.1999 101.6C57.6999 101.3 56.9999 101.3 56.4999 101.6L52.1999 104H49.4999Z" fill="#16110D"/>
<path d="M64.7999 104.3L58.1999 108C57.6999 108.3 56.7999 108.3 56.1999 108L49.5999 104.3C49.0999 104 49.0999 103.5 49.5999 103.2L56.1999 99.5C56.6999 99.2 57.5999 99.2 58.1999 99.5L64.7999 103.2C65.2999 103.5 65.2999 104 64.7999 104.3Z" fill="#FFBE2E"/>
<path d="M57.1999 108.6C56.7999 108.6 56.3999 108.5 56.0999 108.3L49.4999 104.6C49.0999 104.4 48.8999 104.1 48.8999 103.8C48.8999 103.5 49.0999 103.2 49.4999 103L56.0999 99.3C56.6999 98.9 57.6999 98.9 58.3999 99.3L64.9999 103C65.3999 103.2 65.5999 103.5 65.5999 103.8C65.5999 104.1 65.3999 104.4 64.9999 104.6L58.3999 108.3C57.9999 108.5 57.5999 108.6 57.1999 108.6ZM57.1999 99.5C56.8999 99.5 56.5999 99.6 56.2999 99.7L49.6999 103.4C49.4999 103.5 49.3999 103.6 49.3999 103.7C49.3999 103.8 49.4999 103.9 49.6999 104L56.2999 107.7C56.7999 108 57.4999 108 57.9999 107.7L64.5999 104C64.7999 103.9 64.8999 103.8 64.8999 103.7C64.8999 103.6 64.7999 103.5 64.5999 103.4L57.9999 99.7C57.7999 99.6 57.4999 99.5 57.1999 99.5Z" fill="#16110D"/>
<path d="M52.9998 68.8V103.2C52.9998 103.8 53.3998 104.4 54.1998 104.8C55.7998 105.7 58.4998 105.7 60.0998 104.8C60.8998 104.3 61.2998 103.8 61.2998 103.2V68.8H52.9998Z" fill="#FFBE2E"/>
<path d="M56.7999 68.9H53.8999V103.3C53.8999 103.9 54.2999 104.5 55.0999 104.9C55.5999 105.2 56.0999 105.3 56.6999 105.5V68.9H56.7999Z" fill="#FFEECC"/>
<path d="M57.1998 105.8C56.0998 105.8 54.9998 105.6 54.0998 105.1C53.3998 104.7 52.8998 104.1 52.7998 103.5V103.2V68.5H61.6998V103.5C61.5998 104.1 61.0998 104.7 60.3998 105.1C59.3998 105.6 58.2998 105.8 57.1998 105.8ZM53.2998 103.1C53.2998 103.7 53.6998 104.2 54.3998 104.6C55.9998 105.5 58.4998 105.5 59.9998 104.6C60.6998 104.2 61.0998 103.7 61.0998 103.2V103.1V69.1H53.2998V103.1Z" fill="#16110D"/>
<path d="M57 108.3V110.2L58.5 109.8L65.2 106.1L65.1 104.1L58.2 108L57 108.3Z" fill="#16110D"/>
<path d="M59.0999 73.2V105.1L60.1999 104.8L61.3999 103.7V69.1L59.7999 69.4L59.0999 73.2Z" fill="#16110D"/>
<path d="M168.4 72.4V69.9L145.4 58.7L87.2 25C85.1 23.8 81.3 23.9 78.8 25.3L33.4 52.1L28.5 53.2V55.7C28.5 55.8 28.5 55.8 28.5 55.9C28.6 56.6 29 57.3 29.9 57.9L109.2 103.9C111.3 105.1 115.1 105 117.6 103.6L166.4 75.5C167.8 74.5 168.5 73.4 168.4 72.4Z" fill="#FFBE2E"/>
<path d="M112.8 104.9C111.4 104.9 110 104.6 109 104L29.7001 58C28.7001 57.4 28.2001 56.7 28.1001 55.8C28.1001 55.7 28.1001 55.6 28.1001 55.6V52.9L33.2001 51.8L78.6001 25.1C81.2001 23.6 85.1001 23.5 87.3001 24.8L145.6 58.6L168.7 69.8V72.5C168.7 72.6 168.7 72.6 168.7 72.7C168.6 73.8 167.9 74.8 166.5 75.6L117.7 103.7C116.3 104.5 114.5 104.9 112.8 104.9ZM28.7001 53.4V55.6C28.7001 55.7 28.7001 55.7 28.7001 55.8C28.7001 56.5 29.2001 57.1 30.0001 57.5L109.3 103.5C111.4 104.7 115 104.5 117.4 103.2L166.2 75.1C167.5 74.4 168.2 73.4 168.1 72.5V72.2V70.1L145.3 59L87.0001 25.2C84.9001 24 81.3001 24.2 78.9001 25.5L33.5001 52.3L28.7001 53.4Z" fill="#16110D"/>
<path d="M109.1 101.1L29.8001 55.1C27.7001 53.9 27.9001 51.7 30.4001 50.3L78.7001 21.9C81.2001 20.5 84.9001 20.3 87.1001 21.6L167 67.8C169.1 69 168.9 71.2 166.4 72.6L117.6 100.7C115 102.2 111.3 102.3 109.1 101.1Z" fill="#16110D"/>
<path d="M161.2 66.6L87.2002 23.4C85.1002 22.2 81.3002 22.3 78.8002 23.7L30.5002 52.2C30.2002 52.4 29.9002 52.6 29.7002 52.8C28.9002 53.4 29.0002 54.7 29.9002 55.2L103.4 98C105.5 99.2 109.3 99.1 111.8 97.7L160.6 69.6C161.5 69.1 161.5 67.6 161.8 67C161.6 66.5 161.8 66.9 161.2 66.6Z" fill="#FFEECC"/>
<path d="M112.8 102.2C111.4 102.2 110 101.9 109 101.3L29.7001 55.3C28.7001 54.7 28.1001 53.9 28.1001 52.9C28.1001 51.8 28.9001 50.7 30.3001 49.9L78.6001 21.5C81.2001 20 85.1001 19.9 87.3001 21.2L167.1 67.5C168.1 68.1 168.7 68.9 168.7 69.9C168.7 71 167.9 72.1 166.5 72.9L117.7 101C116.3 101.8 114.5 102.2 112.8 102.2ZM109.3 100.8C111.4 102 115 101.8 117.4 100.5L166.2 72.4C167.4 71.7 168.1 70.8 168.1 69.9C168.1 69.2 167.6 68.5 166.8 68L87.0001 21.8C84.9001 20.6 81.3001 20.8 78.9001 22.1L30.6001 50.5C29.4001 51.2 28.7001 52.1 28.7001 53C28.7001 53.7 29.2001 54.4 30.0001 54.9L109.3 100.8Z" fill="#16110D"/>
<path d="M158.6 67.3V56.1L139.4 49L88.4999 17.3C86.6999 16.3 83.5999 16.4 81.4999 17.6L42.9999 39.7L36.3999 43.2V50.2C36.3999 50.3 36.3999 50.3 36.3999 50.4C36.3999 51 36.7999 51.6 37.5999 52.1L109 93.6C110.8 94.6 113.9 94.5 116 93.3L156.9 69.8C158.1 69 158.7 68.2 158.6 67.3Z" fill="#FFBE2E"/>
<path d="M112 94.5C110.8 94.5 109.7 94.3 108.8 93.8L37.4 52.3C36.6 51.8 36.1 51.2 36 50.4C36 50.3 36 50.3 36 50.2V43L42.8 39.4L81.3 17.3C83.5 16.1 86.8 16 88.7 17L139.6 48.7L159 55.8V67.3C159 67.4 159 67.4 159 67.5V67.6C158.9 68.5 158.3 69.3 157.1 70L116.2 93.5C115 94.2 113.5 94.5 112 94.5ZM36.7 43.4V50.2C36.7 50.3 36.7 50.3 36.7 50.4C36.7 50.9 37.1 51.4 37.8 51.8L109.2 93.3C110.9 94.3 113.9 94.2 115.9 93L156.8 69.5C157.8 68.9 158.4 68.1 158.4 67.4V67.1V56.3L139.4 49.3L88.4 17.5C86.7 16.5 83.7 16.6 81.7 17.8L43.1 40L36.7 43.4Z" fill="#16110D"/>
<path d="M169.1 62.1L129.6 13.9L90.6 16.6C87.5 16.8 84.5 17.7 81.9 19.3L36.5 45.3C31.4 46.7 28 47.7 28 47.7V50.5C28.1 51.4 29 51.9 31.4 51.6L67.2 49L108.4 98C110 100 113.6 100.4 115.8 99.1L169.1 68.7C170.2 68 170.9 66.9 170.9 65.7C170.9 65.6 170.9 65.5 170.9 65.4V62.2L169.1 62.1Z" fill="#FFBE2E"/>
<path d="M112.9 100.2C111.1 100.2 109.2 99.5 108.2 98.2L67.0999 49.3L31.5 51.9C30 52 27.9 52 27.7 50.5V47.5L27.9 47.4C27.9 47.4 31.3 46.4 36.4 45L81.6999 19C84.3999 17.5 87.5 16.5 90.5999 16.3L129.9 13.6V13.9L169.3 61.9H171.2V65.4C171.2 65.5 171.2 65.6 171.2 65.7C171.1 67.1 170.4 68.3 169.3 69L116 99.4C115.1 99.9 114 100.2 112.9 100.2ZM67.2999 48.7L108.6 97.8C110.1 99.6 113.5 100.2 115.6 98.9L168.9 68.5C169.9 67.9 170.5 66.9 170.6 65.7C170.6 65.6 170.6 65.5 170.6 65.4V62.4H169L168.9 62.3L129.4 14.2L90.5999 16.9C87.5999 17.1 84.5999 18 82 19.5L36.6 45.5C32.2 46.8 29.0999 47.6 28.2999 47.9V50.4C28.3999 50.9 28.8 51.5 31.4 51.3L67.2999 48.7Z" fill="#16110D"/>
<path d="M109.2 94.4L68.1001 45.4L129.6 10.4L170.1 59.7C171.5 61.5 171 64 169.1 65.2L115.8 95.6C113.6 96.9 110.8 96.4 109.2 94.4Z" fill="#FFBE2E"/>
<path d="M68.0999 45.4L31.4999 48.1C26.7999 48.5 27.6999 47.4 29.3999 46.1C30.4999 45.3 31.5999 44.6 32.6999 43.9L81.7999 15.7C84.4999 14.2 87.4999 13.3 90.4999 13L129.5 10.3L68.0999 45.4Z" fill="#FFBE2E"/>
<path d="M73.5001 62.9C73.5001 66.2 71.2001 67.5 68.3001 65.9C65.4001 64.3 63.1001 60.3 63.1001 57C63.1001 53.7 65.4001 52.4 68.3001 54C71.2001 55.6 73.5001 59.6 73.5001 62.9Z" fill="#FFBE2E"/>
<path d="M70.6 66.9C69.8 66.9 69 66.6 68.1 66.2C65.2 64.5 62.8 60.4 62.8 57C62.8 55.3 63.4 54 64.5 53.4C65.6 52.8 67.0001 52.9 68.4001 53.8C71.3001 55.5 73.7 59.6 73.7 63C73.7 64.7 73.1 66 72 66.6C71.7 66.8 71.2 66.9 70.6 66.9ZM66 53.6C65.6 53.6 65.2 53.7 64.8 53.9C63.9 54.4 63.4001 55.5 63.4001 57C63.4001 60.2 65.7001 64.1 68.4001 65.7C69.7001 66.4 70.9 66.6 71.8 66.1C72.7 65.6 73.2 64.5 73.2 63C73.2 59.8 71.0001 55.9 68.2001 54.3C67.4001 53.8 66.7 53.6 66 53.6Z" fill="#16110D"/>
<path d="M68.5001 55.7C67.5001 55.1 66.5001 55 65.8001 55.5C65.1001 55.9 64.6001 56.8 64.6001 58C64.6001 60.3 66.2001 63.1 68.2001 64.2C68.8001 64.5 69.4001 64.7 69.9001 64.7C70.3001 64.7 70.6001 64.6 70.9001 64.4C71.6001 64 72.1001 63.1 72.1001 61.9C72.0001 59.6 70.4001 56.9 68.5001 55.7Z" fill="#16110D"/>
<path d="M68.3001 56C67.8001 55.7 67.4001 55.6 67.0001 55.5C66.7001 55.9 66.6001 56.5 66.6001 57.1C66.6001 59.3 68.1001 62 70.0001 63C70.5001 63.3 70.9001 63.4 71.3001 63.5C71.6001 63.1 71.7001 62.5 71.7001 61.9C71.8001 59.7 70.2001 57.1 68.3001 56Z" fill="#FFBE2E"/>
<path d="M68.2001 57.7C67.7001 57.4 67.3001 57.3 66.9001 57.2C66.8001 57.4 66.7001 57.7 66.6001 58C67.0001 60 68.3001 62.1 69.9001 63C70.4001 63.3 70.8001 63.4 71.2001 63.5C71.3001 63.3 71.4001 63 71.5001 62.7C71.2001 60.7 69.9001 58.6 68.2001 57.7Z" fill="#FFEECC"/>
<path d="M71.5 63.9H71.3C70.8 63.9 70.4001 63.7 69.9001 63.4C67.9001 62.3 66.3 59.5 66.3 57.2C66.3 56.5 66.5 55.9 66.8 55.4L66.9001 55.2H67.1C67.6 55.2 68 55.4 68.5 55.7C70.5 56.8 72.1 59.6 72.1 61.9C72.1 62.6 71.9 63.2 71.6 63.7L71.5 63.9ZM67.2001 55.8C67.0001 56.2 66.9001 56.6 66.9001 57.1C66.9001 59.2 68.4001 61.7 70.2001 62.8C70.5001 63 70.9001 63.1 71.2001 63.2C71.4001 62.8 71.5 62.4 71.5 61.9C71.5 59.8 70.0001 57.3 68.2001 56.2C67.8001 56 67.5001 55.9 67.2001 55.8Z" fill="#16110D"/>
<path d="M112.4 120.1L111.8 120.4V104.8L112.4 104.9V120.1Z" fill="#FFBE2E"/>
<path d="M127.5 111.4L126.9 111.7V98.4L127.5 98V111.4Z" fill="#FFBE2E"/>
<path d="M141.7 103.2L141.1 103.6V90.2L141.7 89.9V103.2Z" fill="#FFBE2E"/>
<path d="M82.0999 20.1L36.8999 46C36.1999 46.4 36.4999 47.6 37.3999 47.5L68.2999 45.3L116.7 17.7C117.7 17.1 117.2 15.6 116.1 15.7L90.7999 17.4C87.6999 17.7 84.6999 18.6 82.0999 20.1Z" fill="#FFEECC"/>
<path d="M29.7 48.5C28.2 48.5 27.9 48.2 27.8 47.9C27.6 47.3 28.2 46.7 29.2 45.9C30.2 45.2 31.3 44.4 32.6 43.7L81.7 15.5C84.4 14 87.5 13 90.6 12.8L129.6 10L130 10.5L68.1 45.7L31.5 48.4C30.7 48.4 30.1 48.5 29.7 48.5ZM128.3 10.8L90.6 13.4C87.6 13.6 84.6 14.5 82 16L32.8 44.2C31.5 44.9 30.5 45.6 29.5 46.4C28.2 47.4 28.2 47.7 28.2 47.7C28.2 47.7 28.4 48.1 31.3 47.8L68 45.1L128.3 10.8Z" fill="#16110D"/>
<path d="M109.4 94.4C111 96.4 113.8 96.9 116 95.6L165 67.7C167.1 66.5 167.6 63.7 166.1 61.9L131.4 19.7C130 18.1 127.7 17.6 125.8 18.7L82.0999 43.5C81.8999 43.6 71.8 49.4 71.7 49.5L109.4 94.4Z" fill="#FFEECC"/>
<path d="M113.2 96.6C111.6 96.6 110 95.9 109 94.6L67.6001 45.3L129.6 10L129.8 10.2L170.3 59.5C171 60.4 171.3 61.6 171.1 62.7C170.9 63.8 170.2 64.8 169.2 65.4L115.9 95.8C115.1 96.3 114.1 96.6 113.2 96.6ZM68.5001 45.5L109.4 94.2C110.9 96.1 113.6 96.6 115.6 95.3L168.9 64.9C169.7 64.4 170.3 63.6 170.5 62.6C170.7 61.6 170.4 60.6 169.8 59.9L129.5 10.7L68.5001 45.5Z" fill="#16110D"/>
<path d="M84.7 108.4L67.3 98.4V79.5L84.7 89.5V108.4Z" fill="#FFBE2E"/>
<path d="M67.3 98.4L69.3 97.2V80.6L67.3 79.5V98.4Z" fill="#16110D"/>
<path d="M85 109.7V107.2L69.6 98.4L67.5 99.6L85 109.7Z" fill="#FFEECC"/>
<path d="M69.6 80.5L67 79V98.5L85 108.9V105.8V89.4L69.6 80.5ZM67.5 79.9L69 80.8V97L68 97.6L67.5 97.9V79.9ZM67.8 98.4L68.5 98L69.3 97.5L84.4 106.1V108L67.8 98.4ZM69.6 97V81.1L84.5 89.7V105.5L69.6 97Z" fill="#16110D"/>
<path d="M77.1001 85H76.6001V101.5H77.1001V85Z" fill="#16110D"/>
<path d="M76.4001 92.5L71.8 89.8V83.2L76.4001 85.9V92.5Z" fill="#FFEECC"/>
<path d="M75.7001 91.2L70.6001 88.2V81L75.7001 84V91.2ZM71.1001 87.9L75.2001 90.2V84.2L71.1001 81.9V87.9Z" fill="#16110D"/>
<path d="M76.4001 100.3L71.8 97.6V91.5L76.4001 94.1V100.3Z" fill="#FFEECC"/>
<path d="M75.7001 99L70.6001 96V89.2L75.7001 92.2V99ZM71.1001 95.7L75.2001 98V92.5L71.1001 90.2V95.7Z" fill="#16110D"/>
<path d="M83.9999 96.9L79.3999 94.3V87.6L83.9999 90.3V96.9Z" fill="#FFEECC"/>
<path d="M83.3 95.6L78.2 92.6V85.3L83.3 88.3V95.6ZM78.7 92.4L82.8 94.7V88.7L78.7 86.4V92.4Z" fill="#16110D"/>
<path d="M83.9999 104.7L79.3999 102V95.9L83.9999 98.5V104.7Z" fill="#FFEECC"/>
<path d="M83.3 103.4L78.2 100.4V93.6L83.3 96.6V103.4ZM78.7 100.1L82.8 102.4V96.9L78.7 94.6V100.1Z" fill="#16110D"/>
</g>
<defs>
<clipPath id="clip0">
<rect width="179.1" height="159.3" fill="white" transform="translate(8 10)"/>
</clipPath>
</defs>
</svg>
